/* XPM */
static char *back2[] = {
/* columns rows colors chars-per-pixel */
"50 50 190 2 ",
"   c #0B0602",
".  c #0E0903",
"X  c #110B04",
"o  c #171134",
"O  c #181237",
"+  c #1A143C",
"@  c #171B3B",
"#  c #12223A",
"$  c #0A3932",
"%  c #093731",
"&  c #08352E",
"*  c #3B353F",
"=  c #5C311E",
"-  c #532C1B",
";  c #443E3F",
":  c #653721",
">  c #135A05",
",  c #166A07",
"<  c #177B07",
"1  c #187B07",
"2  c #1D750D",
"3  c #177A08",
"4  c #197A09",
"5  c #1C6D1A",
"6  c #196616",
"7  c #1D711F",
"8  c #277816",
"9  c #256D16",
"0  c #3B493A",
"q  c #35752A",
"w  c #474A39",
"e  c #734026",
"r  c #1D1644",
"t  c #1E1843",
"y  c #221A4D",
"u  c #211A45",
"i  c #241B54",
"p  c #261D59",
"a  c #281E5E",
"s  c #192449",
"d  c #173355",
"f  c #172F50",
"g  c #292053",
"h  c #291F61",
"j  c #2A2062",
"k  c #453F43",
"l  c #0B4C58",
"z  c #035A55",
"x  c #016157",
"c  c #01655B",
"v  c #0A5B62",
"b  c #006C62",
"n  c #036A65",
"m  c #017167",
"M  c #01756B",
"N  c #01796F",
"B  c #147668",
"V  c #017C72",
"C  c #177F70",
"Z  c #4A4442",
"A  c #474840",
"S  c #49434C",
"D  c #514C49",
"F  c #4A5643",
"G  c #59544B",
"H  c #534C54",
"J  c #5B5651",
"K  c #5B5852",
"L  c #4D4750",
"P  c #635C55",
"I  c #6C655C",
"U  c #67645D",
"Y  c #7E7555",
"T  c #746C62",
"R  c #7C756A",
"E  c #6F6C61",
"W  c #917A5C",
"Q  c #AE724A",
"!  c #B1764D",
"~  c #B97F52",
"^  c #9F7860",
"/  c #A47F6C",
"(  c #178205",
")  c #188406",
"_  c #178D04",
"`  c #198C04",
"'  c #1A8409",
"]  c #1D8B0A",
"[  c #1B9206",
"{  c #1E920A",
"}  c #1F990A",
"|  c #198816",
" . c #228C0E",
".. c #23810B",
"X. c #21970D",
"o. c #219C0C",
"O. c #238912",
"+. c #2F891E",
"@. c #3E841D",
"#. c #3B8B18",
"$. c #259312",
"%. c #269B12",
"&. c #2A9B16",
"*. c #25911A",
"=. c #2C9C19",
"-. c #2A9518",
";. c #309C1E",
":. c #25A60E",
">. c #26A510",
",. c #29A314",
"<. c #2FAB18",
"1. c #2CA518",
"2. c #34AB1E",
"3. c #148D21",
"4. c #168A36",
"5. c #139434",
"6. c #199C3C",
"7. c #199131",
"8. c #328A26",
"9. c #349B23",
"0. c #379226",
"q. c #3A873A",
"w. c #278937",
"e. c #1BA539",
"r. c #33A221",
"t. c #3EAD2A",
"y. c #38AC23",
"u. c #3AB325",
"i. c #3EB02A",
"p. c #429B1C",
"a. c #4D8826",
"s. c #558C29",
"d. c #59982A",
"f. c #58A42C",
"g. c #40B02B",
"h. c #49BB34",
"j. c #4BB937",
"k. c #51BF3D",
"l. c #46A435",
"z. c #66A736",
"x. c #4FC13C",
"c. c #50C03D",
"v. c #018176",
"b. c #01857A",
"n. c #01897E",
"m. c #168374",
"M. c #408D40",
"N. c #539B47",
"B. c #569849",
"V. c #518E46",
"C. c #53A446",
"Z. c #53A846",
"A. c #57A54A",
"S. c #5EBA4E",
"D. c #5CB44D",
"F. c #65B757",
"G. c #7DBB73",
"H. c #5DC34C",
"J. c #64C753",
"K. c #6FC361",
"L. c #8B815C",
"P. c #A9875C",
"I. c #BC8355",
"U. c #968B65",
"Y. c #B78C67",
"T. c #B39469",
"R. c #AD8C61",
"E. c #C38B5C",
"W. c #C08758",
"Q. c #CB9664",
"!. c #CE9867",
"~. c #CF9968",
"^. c #C79160",
"/. c #D19D6C",
"(. c #D39F70",
"). c #D4A272",
"_. c #D7A679",
"`. c #D8A77B",
"'. c #018E83",
"]. c #019186",
"[. c #00958A",
"{. c #01998E",
"}. c #179586",
"|. c #019D91",
" X c #02A195",
".X c #03A599",
"XX c #09A799",
"oX c #06A89B",
"OX c #0AAB9E",
"+X c #0DAFA1",
/* pixels */
"G.Z.Z.Z.Z.Z.C.N.N.A.F.F.F.Z.C.C.N.N.V.A w A A A A A A A A A A B.S.S.S.S.S.S.S.S.S.S.S.S.S.S.S.S.S.S.",
"Z.` ` ` ` ` ( < 3  .r.r.&._ _ _ < < ,                         4 :.:.:.:.:.:.:.:.:.:.:.:.:.:.:.:.:.:.",
"Z.` ` ` ` ` ( < <  .r.r.&.` ` ` < < , . .   . .               2 :.:.:.:.:.:.:.:.>.:.:.:.:.:.:.>.:.:.",
"Z.` ` ) ( < ] $.$.%.,.,.%.` ` _ < < , . . . . .             . 2 :.:.o.} } [ [ { ] [ ] } u.i.u.>.:.:.",
"Z.` ` < < 4 O.>.,.:.:.:.o.` ` _ < < ,   . . . .   .           2 :.:.} _ ` ) 4 4 1 4 4 O.k.k.h.:.:.:.",
"Z.` ` ( 4 < ] >.&.>.:.:.o.` _ _ < < , . . . X . . .     . . . 4 :.:.} [ ` ) < < 1 1 4 O.k.k.h.:.:.:.",
"C.) ( -.r.9.1.>.>.o.] { { o.} } r.r.+.  . . . . . .   X X X . , ] { ] _ ` { O.-.O.< 4 ' 9.9.;.:.:.:.",
"N.1 < t.S.k.u.>.:.o.< 1 ' >.:.<.S.x.l.  . . . . . . . X X X   > < < ) ` ` $.r.r.&.4 1 < 1 1 ) :.:.:.",
"N.1 1 t.c.c.u.:.:.X.< < ' :.:.<.x.k.l..     . . . . . . . .   > < < ) ` ` $.r.r.-.3 1 1 < 4 ) :.:.:.",
"N.< 4 -.9.9.%.X.] ] < < ] :.:.>.y.t.0..     . . . . . . . .   , ] ] ` ) ) { &.&.-.] ] ] < < ) o.:.:.",
"N.< 4 3 < < < < 1 1 < < ] :.:.:._ ` <       . . . . . . .     2 >.:.{ 1 < ( ` ` [ :.>.o.< 1 < ` ` ` ",
"N.< 1 3 < < < < < < < < ' >.>.>.` ` ..e : = . . .       - = = #.:.:.{ < < ( ` ` [ :.>.o.1 1 < ` ` ` ",
"A.)  .] ] ] ) ) ) ) 1 ( ] e.e.e.5.5.7.G F F $ $ $ % % & 0 w w w.e.e.6.4.4.| [ [ } o.o.o.] ] ] ) ) ` ",
"S.:.:.:.:.:.} ` ] ` ` ` | [.OX+XOXOX XN '.|.|..X.X.X X|.n.V m '.{.+X+X+X.X6.:.:.o.` ` [ :.:.o.1 < < ",
"S.:.:.:.:.:.X.` ` ` ` ` 3.|.+X+XXXOXXXN n.].|. X.X.X.X|.'.v.N ]. X+XoXoXOXe.:.:.o._ ` [ :.:.o.1 < < ",
"S.:.:.o.o.o.] ) ) ` ` ` 3.|.oXoX XOXXXv.n.'.|. X.XoX.X|.'.v.N ].|.OX.X.XOX6.:.:.o.[ ` } o.:.o.) ) < ",
"S.:.>.' 1 4 < 1 1 < ` ` 3.'.[.[.{. X{.v.n.]..X.X.XOXoX X].n.M n.n.[.{.|..X5.` ` [ :.:.:.` ` ` :.:.:.",
"S.:.:.] 4 1 1 < 1 ) ` ` | V v.b.n.{.[.v.].{..X.X.X X{.[.].n.N N v.v.n.n.|.5._ [ [ :.:.:.` ` [ :.:.:.",
"S.o.o.] ) < < < 1 ) [ [ | B C C m.}.}.N n.|..X.X.X|.[.].n.n.M B B m.m.m.}.7.[ [ [ :.:.} ` ` [ o.:.o.",
"N.< 4 o.:.>.] 1 1 ' :.:.0.Q ~ ~ ! I.P.c v.].[.|..X{.[.n.n.n.N Y ! I.! Q E.d.:.:.o.` _ _ ` ` ` < < < ",
"N.< 4 } :.:.{ 4 1 ] :.>.p.~ I.E.I.W.P.x M n.].{. X{.].b.b.v.m W I.E.I.I.^.d.:.:.o.` ` ` ` ` ` < < < ",
"N.< < o.:.:.] 1 4 ' :.>.p.E.^.^.E.E.P.z m v.n.]. X{.].v.V N m L.W.^.E.E.E.d.:.<.:.` ` ` ` [ ) < < 1 ",
"Z.` ` ( 1 < < 1 1 < ` [ #.^.Q.Q.~.Q.P.c M b.b.].{..X{.b.m m c U.^.Q.!.~.Q.z.:.:.o.` ` ` ` ` ` < < < ",
"Z.` ` < < < < < 1 ) ` ` #.!.~././.~.T.c N b.b.].{..X{.n.M c c U.!././.~.Q.z.:.:.o.` ` ` ` ` ` < < < ",
"Z.` ` ( < 4 4 4 1 ) ` ` #./.).).(./.T.m N b.b.].{. X[.].M b x U./.).).(./.z.:.:.:.` ` ` ` ` ) 3 < 1 ",
"Z.` ` t.j.j.y.>.o.X.1 < @./.Q.~././.T.m M M v.n.].[.[.].n.N x U.!.Q./.(./.d.:.:.o.` ` ` ` ` [ >.:.:.",
"Z.` ` i.k.k.u.>.:.o.1 < a.!.Q.~././.T.m m m N b.n.'.'.].v.M x U./.Q.~././.d.,.:.o.` ` ` ` ` [ :.>.:.",
"Z.` ` i.k.k.u.:.:.X.1 < #./.Q.Q.~.(.T.x c c m m N V v.n.M b c U./.Q.~././.d.,.:.:.` ` ` ` ` ` :.:.>.",
"C.< 1 %.<.<.X.' ' < < 1 @.~.~.~.(.).Y.# @ @ # l M V V M f s s ^ ~.!./.(.).s.' ' ) ` _ [ o.:.:.:.>.:.",
"N.< 4 X.:.:.] 1 1 1 1 1 @./.~./.).).Y.o o o o f z N n v s u t ^ /./.(.).).s.< < 1 ` _ [ :.:.:.:.>.>.",
"N.< 4 o.:.>.{ 4 < < 1 1 8.`.).).`.).I.O + r r r O n l p i y t P._.(.)._./.s.< < < _ ` [ :.:.:.:.:.:.",
"D.} o.] ' ' ` ) ` ) ) `  .f.f.f.f.f.s.y y i y r + d p p p i y q a.a.a.a.a...< < ) o.:.o.:.:.:.[ } [ ",
"S.:.:.] < 1 ) ` ` ` ` ` [ :.:.:.:.:.*.p p p p y r i i a p y r 6 4 3 4 3 1 1 1 1 ' :.:.:.:.:.:.[ _ ` ",
"S.:.:.' 3 3 ) ` ` ` ` ` } :.:.:.:.:.*.p p j i i i i p a p i i 6 3 3 3 3 1 1 1 1 ' :.:.>.:.>.:.` ` ` ",
"Z.] ] { { X.[ _ ` ] o.} :.:.:.:.:.>.*.p j j i i i i p j p i i 5 ) ( < < 1 ' { X.X.' ' ] :.:.:.` _ ` ",
"N.< < $.:.:.} _ ` [ :.:.:.:.:.:.:.>.*.g p j p i i p a j p i p 5 _ _ ( < 1 ] :.:.o.4 1 ' :.:.o.` _ [ ",
"N.< 4 } >.>.} _ ` [ :.:.:.:.:.:.:.>.*.y i p g j j i y y h h j 7 ` ` ( < 1 ] :.:.o.1 1 ' :.>.:.] ` ` ",
"N.< 4 X.>.>.} _ ` ` } } o.o.} o.:.>.*.r r r i y i r r r y y s 5 ` ` ) 1 1 )  .X.] 1 < ' >.:.:.` ` ` ",
"N.< < } >.:.} _ ` ` ` ` ` ` ` [ :.>.O.+ + + r r t + + + r r r 6 ` ` ( 1 1 < < 1 1 1 < ' :.:.:.` _ ` ",
"N.< 4 } >.:.} [ ` ` ` ` ` ` _ [ >.>.$.o + + + O @ o O + r + o 6 ` ` ) < 1 < < < 1 1 < ' :.:.o.` _ [ ",
"N.< 4 } :.:.o.} } o.=.=.%.` ` ` o.o.| + + + r r r + + r r r r 8 1.=.$.4 < ' ] [ ] X.] X.} } } } o.} ",
"N.< 4 o.:.:.:.:.:.2.k.k.g.` ` ` ` ` 2 t r r i i r r r r r i i M.k.k.9.< 1 { :.:.:.:.:.:.` ` ` :.:.:.",
"N.3 1 X.:.:.:.:.:.2.c.k.g.` ` ` ` ` 2 y i i i i p r i p p p p q.k.k.9.1 < ] :.:.:.:.:.o.` ` [ :.:.>.",
"N.< 1 ] o.o.o.o.o.>.g.t.2.[ [ X._ ) 2 u i i i p g r r p i i i q.g.t.=.] ' { o.o.o.:.:.:._ ` [ :.>.:.",
"N.< < 3 < 1 ) ` ` ` 1 1 ' :.:.:.< < , + u y g i p @ @ g i g i 5 ` ` } :.:.o._ ` } :.:.o.` ` [ :.:.>.",
"N.3 < < 1 1 ) ] ` ) 1 1 ' :.:.o.< 1 2 * L H H L S g k P H L Z 8 ` ` } :.:.X.` ` [ :.:.:.` ` [ :.>.:.",
"B.) 1 ' ' 1 ` [ ` ` 1 1 ' :.:.o.( 1 2 k J I K G Z k D I P J L 8 ` ) ] } o.} [ } } :.:.>.&.&.o.:.:.>.",
"S.:.:.:.:.:.:.:.:.o.` ` ` ` ` ` ` ` 8 w P T I P D Z H W I U D 8 < < < < 1 ] :.:.:.:.:.<.c.c.h.:.>.>.",
"S.:.:.:.:.:.:.:.:.o.` ` ` ` _ _ ) ` 4 Z P T E J Z Z J T I P L 9 < < < < < ] >.>.>.>.:.<.k.k.h.:.:.:.",
"K.u.i.i.i.i.g.g.t.y.9.9.9.9.9.9.9.9.0.J E R R I K K U R R T K q 8.8.8.8.8.9.i.t.g.t.i.h.J.J.H.t.i.t."
};
