/* XPM */
static char *dia232[] = {
/* columns rows colors chars-per-pixel */
"46 50 159 2 ",
"   c #0C3730",
".  c #163F39",
"X  c #0F433A",
"o  c #0F433B",
"O  c #0F443B",
"+  c #0F443C",
"@  c #0F463D",
"#  c #164039",
"$  c #19423B",
"%  c #1A423C",
"&  c #10483E",
"*  c #104A41",
"=  c #104C42",
"-  c #114D43",
";  c #114F45",
":  c #125348",
">  c #125449",
",  c #13564A",
"<  c #13584D",
"1  c #13594D",
"2  c #145D51",
"3  c #145E51",
"4  c #175F53",
"5  c #335751",
"6  c #355853",
"7  c #156255",
"8  c #166356",
"9  c #1A6256",
"0  c #17695B",
"q  c #176C5E",
"w  c #186C5E",
"e  c #3E605B",
"r  c #197162",
"t  c #197364",
"y  c #197465",
"u  c #1F7567",
"i  c #1A7A69",
"p  c #1B7B6B",
"a  c #227769",
"s  c #456660",
"d  c #1C806F",
"f  c #1D8372",
"g  c #1D8775",
"h  c #1E8977",
"j  c #1E8A78",
"k  c #1E8D7A",
"l  c #1F8E7B",
"z  c #24917F",
"x  c #66817C",
"c  c #209480",
"v  c #209581",
"b  c #2D9785",
"n  c #229F8A",
"m  c #23A28C",
"M  c #24A58F",
"N  c #24A892",
"B  c #24A992",
"V  c #25AB94",
"C  c #26B098",
"Z  c #26B099",
"A  c #26B29A",
"S  c #27B49B",
"D  c #27B59C",
"F  c #27B69D",
"G  c #2DB099",
"H  c #2DB49D",
"J  c #28BAA1",
"K  c #2FB9A1",
"L  c #28BDA3",
"P  c #29BEA4",
"I  c #31B9A2",
"U  c #33BDA6",
"Y  c #34BEA7",
"T  c #37BEA7",
"R  c #708985",
"E  c #2BC4A9",
"W  c #36C0A9",
"Q  c #3AC5AE",
"!  c #2CCDB1",
"~  c #37CAB1",
"^  c #32D3B7",
"/  c #36D2B7",
"(  c #30D9BB",
")  c #30DBBD",
"_  c #5FCFBB",
"`  c #39DFC2",
"'  c #39E1C4",
"]  c #3AE2C4",
"[  c #3DE4C7",
"{  c #3EE5C8",
"}  c #43DDC2",
"|  c #5BDCC6",
" . c #6CD8C6",
".. c #42E8CB",
"X. c #49EBCF",
"o. c #4AEDD1",
"O. c #64E4CE",
"+. c #78E2D0",
"@. c #7FE1D0",
"#. c #7DF2DE",
"$. c #9BACAA",
"%. c #9EB4B0",
"&. c #ABB9B7",
"*. c #A4BCB8",
"=. c #94C6BD",
"-. c #B5C2C0",
";. c #B8C4C2",
":. c #B3CDC9",
">. c #B7CFCB",
",. c #81E9D7",
"<. c #81EFDC",
"1. c #8DE8D8",
"2. c #8CF4E2",
"3. c #92F4E3",
"4. c #9FF5E6",
"5. c #A2F1E3",
"6. c #A1F6E7",
"7. c #A2F6E7",
"8. c #A3F6E7",
"9. c #A4F6E8",
"0. c #A7F6E8",
"q. c #A8F6E9",
"w. c #A9F6E9",
"e. c #ABF7EA",
"r. c #AFF7EB",
"t. c #B4F7EB",
"y. c #B5F8EC",
"u. c #B8F8ED",
"i. c #BBF8ED",
"p. c #BBF9EE",
"a. c #BEF9EE",
"s. c #C0F9EF",
"d. c #C1F9EF",
"f. c #C2F9EF",
"g. c #C4F9F0",
"h. c #C8FAF1",
"j. c #CDF9F2",
"k. c #CDFAF2",
"l. c #D1FAF3",
"z. c #D4FBF4",
"x. c #D5FBF4",
"c. c #D8FBF5",
"v. c #D9FBF5",
"b. c #DCFBF6",
"n. c #DDFBF6",
"m. c #E2FCF7",
"M. c #E3FCF8",
"N. c #E4FCF8",
"B. c #E7FCF9",
"V. c #E9FDF9",
"C. c #EAFDFA",
"Z. c #ECFDFA",
"A. c #EDFDFA",
"S. c #EEFDFB",
"D. c #F4FEFC",
"F. c #F6FEFD",
"G. c #F9FEFE",
"H. c white",
"J. c None",
/* pixels */
"J.J.J.J.J.J.J.J.J.J.J.J.J.J.J.                                J.J.J.J.J.J.J.J.J.J.J.J.J.J.J.",
"J.J.J.J.J.J.J.J.J.J.J.J.J.J.J.                                J.J.J.J.J.J.J.J.J.J.J.J.J.J.J.",
"J.J.J.J.J.J.J.J.J.J.J.J.J.J.J.                                J.J.J.J.J.J.J.J.J.J.J.J.J.J.J.",
"J.J.J.J.J.J.J.J.J.J.J.J.J.J.J.. # # # # # # # # # # # # # # . J.J.J.J.J.J.J.J.J.J.J.J.J.J.J.",
"J.J.J.J.J.J.J.J.J.J.J.J.      $.H.H.H.H.H.H.H.H.H.H.H.H.H.H.;.        J.J.J.J.J.J.J.J.J.J.J.",
"J.J.J.J.J.J.J.J.J.J.J.J.      $.H.H.H.H.H.H.H.H.H.H.H.H.H.H.;.        J.J.J.J.J.J.J.J.J.J.J.",
"J.J.J.J.J.J.J.J.J.J.J.J.      $.H.H.H.H.H.H.H.H.H.H.H.H.H.H.;.        J.J.J.J.J.J.J.J.J.J.J.",
"J.J.J.J.J.J.J.J.J.J.J.5 e e e *.Z.Z.Z.Z.Z.Z.Z.Z.Z.Z.Z.F.F.F.:.1 < < , J.J.J.J.J.J.J.J.J.J.J.",
"J.J.J.J.J.J.J.J.      R H.H.H.h.7.7.7.7.7.7.7.7.7.7.0.l.l.l.5.) ) ) l       J.J.J.J.J.J.J.J.",
"J.J.J.J.J.J.J.J.      R H.H.H.h.7.7.7.7.7.7.7.7.7.7.0.l.l.l.5.) ) ) l       J.J.J.J.J.J.J.J.",
"J.J.J.J.J.J.J.J.      R H.H.H.h.7.7.7.7.7.7.7.7.7.7.0.l.l.l.5.) ) ) l       J.J.J.J.J.J.J.J.",
"J.J.J.J.J.J.J.6 x x x %.D.Z.Z.d.7.7.7.7.7.7.7.f.g.g.d.4.4.4.<.' ' ' z       J.J.J.J.J.J.J.J.",
"J.J.J.J.      s H.H.H.Z.l.l.l.y.7.7.7.7.7.7.7.G.H.H.C.o.o.o.o.o.o.o.b       J.J.J.J.J.J.J.J.",
"J.J.J.J.      s H.H.H.Z.l.l.l.y.7.7.7.7.7.7.7.G.H.H.C.o.o.o.o.o.o.o.b       J.J.J.J.J.J.J.J.",
"J.J.J.J.      s H.H.H.Z.l.l.l.y.7.7.7.7.7.7.7.G.H.H.C.o.o.o.o.o.o.o.b       J.J.J.J.J.J.J.J.",
"J.J.J.J.      s H.H.H.m.u.u.u.h.l.x.x.d.p.u.u.B.B.B.n.3.3.3.#.o.o.o.W l l l 7       J.J.J.J.",
"J.J.J.J.      s H.H.H.c.7.7.0.c.H.H.H.b.l.l.l.l.l.l.l.l.l.l.q.o.o.o.{ ) ) ) t       J.J.J.J.",
"J.J.J.J.      s H.H.H.c.7.7.7.c.H.H.H.b.l.l.l.l.l.l.l.l.l.l.q.o.o.o.{ ) ) ) t       J.J.J.J.",
"J.J.J.J.      s H.H.H.c.7.7.7.c.H.H.H.b.l.l.l.l.l.l.l.l.l.l.q.o.o.o.{ ) ) ) t       J.J.J.J.",
"      $ -.-.-.>.d.p.p.k.M.M.N.g.r.r.r.0.4.7.7.4.6.6.6.6.7.5.,.G G G ~ { ....u       J.J.J.J.",
"      % H.H.H.C.7.7.7.h.H.H.H.p.2.2.2.2.2.2.2.2.2.2.2.2.2.2. .c v v W o.o.o.a       J.J.J.J.",
"      % H.H.H.C.7.7.7.h.H.H.H.u.2.2.2.2.2.2.2.2.2.2.2.2.2.2. .c v v W o.o.o.a       J.J.J.J.",
"      % H.H.H.C.7.7.7.h.H.H.H.p.2.2.2.2.2.2.2.2.2.2.2.2.2.2. .c c v U o.o.o.a       J.J.J.J.",
"      % H.H.H.C.7.7.7.u.c.c.c.q.2.2.2.2.2.2.2.2.2.2.2.2.2.2. .c c c U o.o.o./ E E E :       ",
"      % H.H.H.C.7.7.7.y.l.l.l.q.2.2.2.2.2.2.2.2.2.2.2.2.2.2. .c v v T o.o.o.' ) ) ) ,       ",
"      % H.H.H.C.7.7.7.y.l.l.l.q.2.2.2.2.2.2.2.2.2.2.2.2.2.2. .c v v U o.o.o.' ) ) ) :       ",
"      % H.H.H.C.8.8.8.t.j.j.j.q.2.2.2.2.2.2.2.2.2.2.2.2.2.2. .v v v U X.X.X.` ( ( ( :       ",
"      % H.H.H.D.l.l.l.1.! ! ! O.2.2.2.2.2.2.2.2.2.2.2.2.2.2. .v v v h p p p p p p p o       ",
"      % H.H.H.D.l.l.l.1.! ! ! O.2.2.2.2.2.2.2.2.2.2.2.2.2.2. .v v v h p p p p p p p o       ",
"      % H.H.H.D.l.l.l.1.! ! ! O.2.2.2.2.2.2.2.2.2.2.2.2.2.2. .v v v h p p p p p p p o       ",
"      % H.H.H.Z.u.u.u.#.^ ^ ^ | +.+.+.+.+.+.+.+.+.+.+.+.+.+._ m m n v j j j f d f p o       ",
"      % H.H.H.x.o.X.X.o.o.o.o.U v v v v v v v v v v v c c c M ! ! ! ! ! ! ! N v v v &       ",
"      % H.H.H.x.o.o.o.o.o.o.o.I v v v v v v v v v v v v v v M ! ! ! ! ! ! ! N v v v &       ",
"      % H.H.H.x.o.o.o.o.o.o.o.I v v v v v v v v v v v v v v M ! ! ! ! ! ! ! N v v v &       ",
"      % &.&.&.=.o.o.o.} Q Q Q H N N N N N N N N N N N N N N N A C A L ! ! ! c t y y &       ",
"J.J.J.J.      9 o.o.o.T p p p V ! ! ! ! ! ! ! ! ! ! ! ! ! ! F p p p m ! ! ! q       J.J.J.J.",
"J.J.J.J.      9 o.o.o.T p p p V ! ! ! ! ! ! ! ! ! ! ! ! ! ! F p p p m ! ! ! q       J.J.J.J.",
"J.J.J.J.      9 o.o.o.T p p p V ! ! ! ! ! ! ! ! ! ! ! ! ! ! A p p p m ! ! ! q       J.J.J.J.",
"J.J.J.J.      2 [ [ [ K p p p V ! ! ! ! ! ! ! ! ! ! ! ! ! ! F p p p c C C C 7       J.J.J.J.",
"J.J.J.J.      2 ) ) ) S p p p V ! ! ! ! ! ! ! ! ! ! ! ! ! ! F p p p g v v v <       J.J.J.J.",
"J.J.J.J.      2 ) ) ) S p p p V ! ! ! ! ! ! ! ! ! ! ! ! ! ! F p p p g v v v <       J.J.J.J.",
"J.J.J.J.      2 ) ) ) A p p p V ! ! ! ! ! ! ! ! ! ! ! ! ! ! F p p p g v v v <       J.J.J.J.",
"J.J.J.J.J.J.J.J.w w w p k k k A ! ! ! ! ! ! ! ! ! ! ! ! ! ! J k k k t , , , * J.J.J.J.J.J.J.",
"J.J.J.J.J.J.J.J.      2 v v v F ! ! ! ! ! ! ! ! ! ! ! ! ! ! L v v v 0       J.J.J.J.J.J.J.J.",
"J.J.J.J.J.J.J.J.      2 v v v F ! ! ! ! ! ! ! ! ! ! ! ! ! ! L v v v 0       J.J.J.J.J.J.J.J.",
"J.J.J.J.J.J.J.J.      2 v v v F ! ! ! ! ! ! ! ! ! ! ! ! ! ! L v v v 0       J.J.J.J.J.J.J.J.",
"J.J.J.J.J.J.J.J.J.J.J.o @ & & * ; ; ; ; ; ; ; ; ; ; ; ; ; ; - @ @ & @ J.J.J.J.J.J.J.J.J.J.J.",
"J.J.J.J.J.J.J.J.J.J.J.J.                                              J.J.J.J.J.J.J.J.J.J.J.",
"J.J.J.J.J.J.J.J.J.J.J.J.                                              J.J.J.J.J.J.J.J.J.J.J.",
"J.J.J.J.J.J.J.J.J.J.J.J.                                              J.J.J.J.J.J.J.J.J.J.J."
};
