/* XPM */
static char *front2[] = {
/* columns rows colors chars-per-pixel */
"50 50 198 2 ",
"   c #0E0903",
".  c #120C05",
"X  c #1A143B",
"o  c #112539",
"O  c #553524",
"+  c #6B3A24",
"@  c #683722",
"#  c #713E26",
"$  c #145705",
"%  c #195B19",
"&  c #177B07",
"*  c #187B07",
"=  c #177A08",
"-  c #187A08",
";  c #1A6616",
":  c #1C7C11",
">  c #1C7017",
",  c #267A19",
"<  c #337C16",
"1  c #2C780F",
"2  c #257924",
"3  c #427E16",
"4  c #5A4936",
"5  c #7D462A",
"6  c #774227",
"7  c #664634",
"8  c #745B3F",
"9  c #795137",
"0  c #64553C",
"q  c #547837",
"w  c #1D1643",
"e  c #1F1849",
"r  c #1F1748",
"t  c #231C44",
"y  c #21194C",
"u  c #241B53",
"i  c #271D5A",
"p  c #281E5E",
"a  c #142D48",
"s  c #15324F",
"d  c #163959",
"f  c #1C2F56",
"g  c #2B244A",
"h  c #2B2754",
"j  c #2B2163",
"k  c #01574E",
"l  c #015B52",
"z  c #09474A",
"x  c #00665C",
"c  c #186B5F",
"v  c #2E6959",
"b  c #026E64",
"n  c #01746A",
"m  c #02796F",
"M  c #027066",
"N  c #017D73",
"B  c #077C77",
"V  c #534D48",
"C  c #4D5644",
"Z  c #4E5A45",
"A  c #57544A",
"S  c #5C5650",
"D  c #4F4945",
"F  c #665F58",
"G  c #4D604A",
"H  c #78614E",
"J  c #78664D",
"K  c #696159",
"L  c #756D64",
"P  c #7B7269",
"I  c #834B2D",
"U  c #965B38",
"Y  c #9E603A",
"T  c #A2633C",
"R  c #8E6D51",
"E  c #AC744C",
"W  c #AE7147",
"Q  c #B2774D",
"!  c #B47B51",
"~  c #B97F53",
"^  c #AB7049",
"/  c #857D73",
"(  c #967A62",
")  c #178205",
"_  c #188306",
"`  c #178D03",
"'  c #198C04",
"]  c #1A8409",
"[  c #1D8C0A",
"{  c #1B9206",
"}  c #1E950A",
"|  c #1F990A",
" . c #1A8511",
".. c #218B0E",
"X. c #20840D",
"o. c #20960D",
"O. c #219C0C",
"+. c #248914",
"@. c #348A15",
"#. c #259412",
"$. c #2A9B16",
"%. c #2D9A1A",
"&. c #289815",
"*. c #359819",
"=. c #25A60E",
"-. c #26A510",
";. c #2CA616",
":. c #32A31E",
">. c #37AB1D",
",. c #138428",
"<. c #199725",
"1. c #0F8A34",
"2. c #0F933C",
"3. c #13963E",
"4. c #339C21",
"5. c #35942D",
"6. c #1DA128",
"7. c #35A122",
"8. c #3BAA27",
"9. c #3AB224",
"0. c #3EB229",
"q. c #59882A",
"w. c #5D9328",
"e. c #5F9A32",
"r. c #61882E",
"t. c #62932C",
"y. c #628A30",
"u. c #679D34",
"i. c #4BBC37",
"p. c #51BF3D",
"a. c #40B02B",
"s. c #6CA437",
"d. c #70A73B",
"f. c #4FC03C",
"g. c #50C03D",
"h. c #169A40",
"j. c #018176",
"k. c #01847A",
"l. c #01897E",
"z. c #539B47",
"x. c #519346",
"c. c #528846",
"v. c #53A845",
"b. c #55A548",
"n. c #5DBA4C",
"m. c #5AB44C",
"M. c #64B955",
"N. c #72AD49",
"B. c #7DBC71",
"V. c #7ACD6A",
"C. c #BD8559",
"Z. c #BB8256",
"A. c #A3855B",
"S. c #928A67",
"D. c #92906C",
"F. c #8F867A",
"G. c #AF9569",
"H. c #B1966A",
"J. c #B39B70",
"K. c #B58C6E",
"L. c #C38B5C",
"P. c #C08758",
"I. c #C59062",
"U. c #CB9664",
"Y. c #CD9867",
"T. c #CF9A69",
"R. c #D19D6C",
"E. c #CE9C70",
"W. c #D4A172",
"Q. c #D6A57A",
"!. c #D8A87D",
"~. c #D3A06F",
"^. c #85CB79",
"/. c #0F7DCB",
"(. c #018D82",
"). c #009186",
"_. c #00958A",
"`. c #009A8E",
"'. c #009D91",
"]. c #02A296",
"[. c #04A599",
"{. c #08AA9D",
"}. c #0BADA0",
"|. c #6F97B3",
" X c #9A9183",
".X c #B8A794",
"XX c #8B9FAB",
"oX c #8EA1AB",
"OX c #ACA398",
"+X c #D6AD89",
"@X c #DCB595",
"#X c #DEB798",
"$X c #C7AB92",
"%X c #C7BCA9",
"&X c #DCC5B2",
"*X c #E5CAB6",
"=X c #F4EFEE",
"-X c #CFE3F4",
/* pixels */
"B.v.v.v.v.v.b.z.z.b.M.M.M.b.v.v.z.z.c.C C C C C C Z Z Z C C C b.n.n.n.n.n.n.n.n.n.n.n.n.n.n.n.n.n.n.",
"v.' ' ' ' ' ) & = ..4.7.$.' ' ' = = $       . .         .     X.=.=.=.=.=.=.=.=.=.=.=.=.=.=.=.=.=.=.",
"v.' ' ' ' ' ) & * ..7.:.%.' ' ' = = $     . . . . . . .       X.=.=.=.=.=.=.=.=.=.=.=.=.=.=.=.-.=.=.",
"v.' ' _ * * [ o.#.o.;.;.O.' ' ' = = $   A H H H H H H H 8 O . ..=.=.=.o.{ { { [ [ [ o.o.0.0.9.=.=.=.",
"v.' ' _ * * ..-.-.-.=.=.=.' ' ' = = $   K.#X#X#X#X#X#X#XQ.R   [ =.=.O.' ' _ - - - - - +.g.g.i.=.=.=.",
"v.' [ * * * ..-.$.-.=.-.| ' ' ' = = q.+X$X#X#X#X#X#X#X#XE.Y.L.:.=.=.O.' ' ] - - * * - +.g.g.i.=.=.=.",
"b._ * %.4.7.:.=.-.O.[ [ } | O.O.4.7.N.+X*X&XXX.X#X#X.XoX&X+XI.*...' [ ` ' o.#.+...- * - *.4.%.=.=.=.",
"z.& - a.p.p.9.=.=.| = = [ -.=.;.p.p.N.+X=X-X/.oX@X#X|./.=X*XP.< * * ) ` ` #.:.7.%.- * * * * ] =.=.;.",
"z.= = 8.p.f.9.=.=.| & & ] =.=.;.g.g.N.C.!.+X.XR 7 7 ( .XE.~ ^ 1 * & ) ` ` o.7.7.%.* * * & * ' =.=.=.",
"z.& = @.4.4.#.[ } ] & = [ =.=.-.8.8.t.W C.I.K.9 @ O U K.! E ^ < [ [ _ ' _ ..&.&.#.[ [ ] * * * O.=.O.",
"z.= = = * & & - = * & * [ =.=.=.` ` 3 Y ^ U @ @ @ @ + # T U U *.=.=.o.* * ) ` ` { =.=.O.& * * ' ` ' ",
"z.= = = - * * & * * * * [ =.=.-.` ' < 5 5 5 I 6 # 5 I I U U U *.=.=.o.* * _ ` ` { =.=.O.* * * ' ' ' ",
"b.[ [ [ [ [ ] ) _ _ _ *  .6.6.<.<.<.2 4 4 7 I 5 I 5 I I 8 8 8 5.6.6.<.,.,.[ | { } O.O.o...' [ ] ` ' ",
"n.=.=.=.=.=.| ' ' ' ' ' 2.`.{.{.{.'.(.m n c # 5 I + # 6 x M m _.].[.{.{.`.3.=.=.=.` ` { =.=.O.* = = ",
"n.=.=.-.-.-.| ' ' ' ' ' 2.'.[.[.[.'.).N j.j.v 0 I 5 Z v k.k.j.`.].[.[.[.`.3.=.=.=.' ` ' =.=.O.* & * ",
"n.=.=.=.o.| [ ' _ ' ' ' 2.].[.[.[.'.(.m k.l.m Z 9 9 v k.l.l.l.`.].[.[.[.`.h.=.O.O.{ { } O.=.O.] * _ ",
"n.=.;.] = & * * - ) ' ' 1.)._._._._.).N l._.l.l.k.j.k.l.).l.j.l.)._._._.`.2.` ` { =.-.=.' ' ' =.=.=.",
"n.=.=.[ - & * - - ) ' ` 1.j.k.k.N (.N m l.).).l.l.k.l.).).k.n j.j.j.j.k.l.1.{ ` { =.=.=.' ' { =.=.=.",
"m.O.O.[ * _ * & - * ` { ,.b b b M m m b l.l.)._._.l.l._.l.j.x x b M M n m ,.` { { =.O.| ' ' ' o.O.=.",
"z.& * o.=.-.} & & [ =.=.w.W E W Q E J k n k.].].'.k.l.`.k.n l R E E Q W W w.=.=.=.' ' ` ' ' ' = & & ",
"z.& & | =.=.[ & & [ =.-.t.! Z.Z.Z.! J x n k.[.].].l.)._.l.m x A.Z.Z.Z.Z.Q w.=.=.O.` ' ' ' ' ' & & & ",
"z.& * o.=.=...& - ] =.=.t.P.P.L.L.C.R l n j.].].]._.`.'.).k.m A.P.P.P.L.C.u.=.=.O.' ' ` ' ' ' * & & ",
"b.` ' ) & & & & * * ` ' t.Y.Y.T.R.T.S.k j.l.'._._.'.].[._.).j.G.Y.Y.R.R.T.d.;.=.=.` ` ` ' ' ' * & & ",
"v.' ' ) & & & & = _ ' ' t.Y.R.T.R.~.S.l j.l.'._.).'.].[.`.l.j.G.T.T.R.R.R.d.=.=.O.` ` [ ' ' ' * & & ",
"v.' ' ) = = = = * * ' ' t.Y.R.R.Y.R.S.x N (.'.(.l.].].{.'.).j.G.R.R.R.Y.R.d.=.-.=.' ' ' ' ' _ & & * ",
"v.' [ 0.p.p.9.-.=.o.& * r.Y.~.R.U.R.D.b N (.).(.l.`.'.].`.l.k.G.R.W.Y.U.R.u.=.=.O.' ' { ' ' { =.-.=.",
"v.' ' 0.p.p.9.-.=.o.* * r.T.~.R.U.~.D.b N N (.k.k.)._.'.`.).l.G.R.W.R.Y.W.u.;.=.O.' ' ' ' ' { =.=.-.",
"v.' ` a.p.p.9.=.=.o.* * r.R.~.~.~.!.S.k x b b n m j.l._.]._.k.J.R.R.R.W.!.u.=.=.=.' ' ' ' ' ' =.-.=.",
"b.* * O.;.;.o._ * * * * y.R.Q.W.W.~.( o a a a s s d d d ).).k.J.W.W.W.W.W.y.] _ ) ` ` { =.=.=.=.=.-.",
"z.- * o.=.=.[ * & & * * y.W.Q.W.~.R.R X X w w w y u u y B j.j.J.W.Q.W.W.T.r.- * & ` ` { =.=.=.=.;.=.",
"z.& - o.=.=.} - & & * * r.R.R.R.~.I.R X w w y y u i u u u a z H.R.R.R.R.I.q.* * * ` ` ' =.=.=.=.=.=.",
"m.| O.[ ] ] _ _ ' ' ' X.@.s.s.s.u.u.q u i i h i i i p p p h f q r.y.y.r.q.< * * _ O.=.=.=.=.=.{ { { ",
"n.=.=.[ & * _ ' ' ' ' { { =.=.=.=.=.,.p j j j j p p j j j j p > & * * * * * * * ] =.=.=.=.=.=.` ' ' ",
"n.=.=.] = & _ ' ' ' ' ' } =.=.=.=.=.2 i j j j u u u p j j p u > & & & * * * * * ] =.=.;.=.=.=.` ` { ",
"b.[ [ } o.o.{ ' ' { O.O.=.=.=.=.=.=.2 e p j j i u y i j j i u : ' ) * * * _ o.o.o._ ] [ =.=.O.' ` ' ",
"z.= = #.=.-.| ' ' } =.=.=.=.=.=.=.=.2 r p j j u u t u j p i u : ` ` ) * * ..=.=.O.- * ] =.=.=.' ' ' ",
"z.= - o.-.-.| ` ' { =.=.=.=.=.=.=.=.2 u i j j i y u u p j p y  .` ' _ & & ..=.=.o.& * ] =.-.=.' ' ' ",
"z.& - | -.-.| ' ' { { | O.} } | =.=.2 e u i h u y y u i p i y > ' ' _ & * * ..' ] & * ] =.-.=.' ` ` ",
"z.& = | =.=.| ' ' ' ' ' ' ' ' { =.=.2 w y u u y y w y u u y y : ' ' ) * * * * * * * * ] -.-.O.' ` { ",
"z.= = | =.=.| ` ' ' ' ' ' ' ` { -.-.> w w w w w X t X w w w w - ' ' ) * * * * * * * * ] -.=.=.' ` ` ",
"z.& - } =.=.O.| | O.7.:.$.' ' ' | | > w w w t w X w w w w w X <.:.7.&.= & ] } O.o.o.o.o.{ o.o.O.=.| ",
"z.& - O.=.=.=.=.=.>.g.g.a.{ ' ' ' ' ; r r r e w w w w r r r w q.g.p.4.& * [ =.=.=.=.=.=.` ` ' =.=.=.",
"z.& * o.=.=.=.=.=.>.g.g.0.` ' ' ' ` ; X r y e r w w r e e r w 5.g.p.7.& = [ =.=.=.=.=.O.' ' { =.=.=.",
"z.& * [ o.o.o.O.O.-.7.7.%.} | o.) ) ; w r e y r w w r e y r w 5.8.8.%.[ [ } | | O.=.=.=.' ' { =.=.=.",
"z.& * * * * _ ' ' ' * * [ =.=.=.= & % w w w y t w w w w y r w  .` ` } =.=.| ' ' { =.=.=.` ' { =.=.=.",
"z.= * * * * _ ' ' ' * * [ =.=.O.= = % w w w y t w w w w y r w : ` ` | =.=.O.' ' } =.=.=.' ' { =.=.=.",
"b.] ] ] [ ] ' { ' [ * * [ O.O.O.& ) % t g g h g t t t g g g t - _ ) ' | } } | | | =.=.-.%.:.;.=.=.=.",
"n.=.-.=.=.=.=.=.=.O.` ` ' ' ' ' ` ] @.F .X%X%XF.P F  X%X%XOXP , & = = = * [ =.=.=.=.=.;.g.p.i.=.=.=.",
"n.=.=.=.=.=.=.=.=.O.` ' ' ' ` ` ' ` < S P F.P L F S L / / P F , & & & & & [ -.=.=.=.=.;.f.f.f.=.=.=.",
"^.n.n.n.n.n.n.n.n.p.i.z.v.v.v.v.v.v.c.V V V D A S V V D D V S x.z.z.z.z.z.v.n.n.n.n.n.n.V.V.V.n.n.n."
};
