/* XPM */
static char *grass2[] = {
/* columns rows colors chars-per-pixel */
"50 50 65 1 ",
"  c #177C07",
". c #187B07",
"X c #177B08",
"o c #187B08",
"O c #178306",
"+ c #198406",
"@ c #178E03",
"# c #198D04",
"$ c #1B840A",
"% c #1D8B0B",
"& c #1B9206",
"* c #1E930A",
"= c #1F990A",
"- c #208E0E",
"; c #20930D",
": c #219C0C",
"> c #238912",
", c #269413",
"< c #289515",
"1 c #269912",
"2 c #2A9D16",
"3 c #2C951A",
"4 c #2C9B1A",
"5 c #319D1F",
"6 c #26A60F",
"7 c #25A80E",
"8 c #26A610",
"9 c #28A512",
"0 c #2CA916",
"q c #2EA11A",
"w c #33A51F",
"e c #32AD1B",
"r c #34B01E",
"t c #368C29",
"y c #369C25",
"u c #369229",
"i c #389E28",
"p c #34A222",
"a c #39AA25",
"s c #3DAA2B",
"d c #3AB325",
"f c #3EB329",
"g c #40AB2D",
"h c #41B12E",
"j c #49B736",
"k c #46BA31",
"l c #4ABC35",
"z c #4DBC3A",
"x c #51BF3E",
"c c #51C03D",
"v c #539B47",
"b c #549B48",
"n c #54A446",
"m c #54A946",
"M c #56A349",
"N c #59A64C",
"B c #59A94B",
"V c #5CB44D",
"C c #5EBB4E",
"Z c #62B454",
"A c #68B95A",
"S c #7DBC73",
"D c #60C44E",
"F c #67C855",
"G c #71C464",
/* pixels */
"SmBmmmnvbNAAZmNmvvbbbbbvvVCCNbbVCCCCCCCCCCCCCCCCCC",
"m@#@@@+..>pp2#@#X  X  X  677#X *766777776777777777",
"m@@@##+.o>pp4###oo o ooo 179$XX;666666797966778877",
"m@#$oO-;;100:@@#ooo;,;;;*%*%*,*8666==*%*%*%;fhd877",
"m##$oo;99667:###Xoo777669Ooo:66667:#&+ooooo>xxl878",
"m##Ooo-92968:###XXO787697ooX187966:##+ooooo>xxl897",
"n+$3py586:--;:::ipy%;*===**,%**%*;%@#%<>>oo>5y5777",
"b.ogcxd86:..%770ccz oX##@977%XXXoo+@@1pp4o  ..o789",
"b..gccd87:..%880cczo..#@@896$     +@@1pp3o...o$778",
"b.o3yy1;*$..%979asaOOO$#+:::*%%%%%#+$-22<%%%o.$:::",
"v.oo....o...$766#@###@  X###679766;oo+@#*79:..O@##",
"vooo........#866###### oX###=77966;.o+##&79:o.o@#&",
"M#-#-$++ OO %::;###;==Oo ##@:666::-.o#=&=:::%%%+#+",
"C89788:#####+.. @@&779@@@###666&@#+. %766##&88:...",
"C68788:#####+.. ###779##@@##:86=@#+ .-666##&66:o..",
"C88:::#$+#@@#...###899&#@&&&:8:&#@+  %66=&&*66:$$$",
"C79%oo.ooO###  o&@#869@#@997%ooo.oO#####;796@@&867",
"C69$oo..oO##$oo ##&869@@#677$ooo  +@####*766##&877",
"V68%oOoo.o#&#oo$###966&@%667% oo  +####&&66:##&:6:",
"b o:88*o.-666#########967777*##&#####:87:######.oo",
"b X:66-..$88:#########668777*########:886######.Xo",
"v  ;68-.o-88:#########678886*&####@##:87:#####+ X ",
"N@@O.....+&## o+888####&&##@:66*##wcxd876###### X.",
"m@%O   ..+###o o878#########677=##wcch77:######   ",
"m#&O ooo.+##+. $666-########666;##wxxh876######..o",
"m##szza68;. $699766666666kcze67;##+$$;77:###@@#886",
"m@@hcxd88:..#887778766768lcce77;##O..-886#####&686",
"m@@hxxd86;..$778767787678lcce77&##$o.#67:#####&686",
"n o90e1$$$...$.>>>+678:;;;11666;#####%$$$##&66:696",
"boo;77;............677######667;#####+o. &#*786899",
"b..:88-............677#####@677:##@@@O.. ##&877777",
"V::-$$#++#++-::::::;&*::6&##&;&+O$o O . +6:6776&**",
"C66%..O#####*777779@@#888%@@###. .......$967786@##",
"C78$..O@#@##&777799@#@888@@@#&@+ ... oo.%869676###",
"B%-;;=%##&::7878779@#@887=:::::#++  .$;;;$--886#@#",
"voo:66:##;788887669@#@889779777*##+.o-77:o.$78:###",
"bXo186=@#&677887899@#@667766797&##+..;88:o $898###",
"bXo:86:@#&==::;:796=::==:=:;==:-##+..+#--..$776#@#",
"b o:66=@#######&777666&#@@@#@@@###+........$786###",
"bXo:97=@#######&977669##%@@@@@####+........$88:##&",
"b.o;676;=:qq1###::::6:#++&**#+O,qq<Xo$;;-;;;::;:::",
"b.o:67778rxxh#########.. 676$ooscziXo%68888:##&777",
"b..:68688exxh#########..o666%oogxxiXo*877786##&788",
"b .-:;:::0gsw:&;#+++++++O=6:;$#wfs4%%*:::776##&787",
"b .o..+###o.+876....oo#@#@##677*@@:96:@#&666##&788",
"bXo...+##$o #866....oo#@#@##:87&@@=66:@@*666##&688",
"MOO$$$#;&# .%8::.+.$$$&&###+:66&++*:::&==668222687",
"C79988688:#@#######888889O.o+##  Xooo%67666eccl797",
"C66787877:@@#@#####978799$oo###+  o.o%99787eccl797",
"GhhhhhhhhgiyyiiyiyighhhhhuttuiiutttttihhhhhjFFDhhh"
};
