/* XPM */
static char *lava2[] = {
/* columns rows colors chars-per-pixel */
"50 50 75 1 ",
"  c #C73603",
". c #CA3602",
"X c #CC3C02",
"o c #CE4203",
"O c #CF4A04",
"+ c #D04404",
"@ c #D24C04",
"# c #D24E08",
"$ c #CE5004",
"% c #D45306",
"& c #D85506",
"* c #D55A07",
"= c #D85A07",
"- c #D55509",
"; c #D85609",
": c #D65A0A",
"> c #D95D0B",
", c #D55B12",
"< c #D95F10",
"1 c #D7620B",
"2 c #DA630D",
"3 c #DB680F",
"4 c #D76312",
"5 c #DA6511",
"6 c #DC6B13",
"7 c #DB6E19",
"8 c #DC7116",
"9 c #DD7419",
"0 c #DE7A1B",
"q c #E07317",
"w c #E0761B",
"e c #E17C1D",
"r c #DF7F21",
"t c #E17E20",
"y c #D56E48",
"u c #D67048",
"i c #D97549",
"p c #DA7B49",
"a c #E0801F",
"s c #DF8321",
"d c #E28423",
"f c #E38925",
"g c #E48628",
"h c #E48C29",
"j c #E5922C",
"k c #E8912F",
"l c #E69631",
"z c #E89734",
"x c #E69A34",
"c c #E89D35",
"v c #E79F38",
"b c #EAA036",
"n c #E7A43A",
"m c #E9A33B",
"M c #ECAA3E",
"N c #DC834A",
"B c #DE894B",
"V c #DD8E53",
"C c #E08C4F",
"Z c #E2904F",
"A c #E08A51",
"S c #E29452",
"D c #E39955",
"F c #E69F59",
"G c #ECAF41",
"H c #EFB244",
"J c #EFB448",
"K c #EEBA4B",
"L c #E5A35B",
"P c #DD9F78",
"I c #E7AD61",
"U c #E8AF63",
"Y c #E7B064",
"T c #EAB568",
"R c #EDC272",
/* pixels */
"PpiiiiuyyuipiiiiuuupppBBBZSSLLUFZSBNpNppVIUTRRRLFL",
"p@@oXoXXX++++++oXXX#@@>>>qq7affq35=###O@<jjlMMMa00",
"p@@oXoXXXX++++++XXX#@@>>*88qdfh935;%%%OO4jjxGGM00e",
"yXXoO+,,4:;&-++++++@@%788eeafffq65;@@+oo#436909>>:",
"y .+#@2776>1:++o+++%%%eeeffffff036&+@+X++@#%===#@@",
"y .+@@2787>1:ooo+++%%@wwefdffff966;@@@XXX@@@>>:%@#",
"y.X:55thhsss8-%$o+o@O@90qdfdw991&;@XXXXX+@++@@+XXo",
"i+o5relmvvxxg11:+o++@O99qfffq33%@@X...XXX@++XoX   ",
"io+5eejmmbxxg11:XoX@OO999fff635%@+oX..XXXOOoXXX   ",
"io+4qqfzxljjs23:+++O@O4338982;:@o+X .XXX+#%OOOo ..",
"i++:22ehhhjhg885+++@O@%O#@%@+XXXX....XX+@21:@@OX..",
"i++,22ehhhhhg885+Xo+@O$O@%%%+oXX.X...X++#>1:%@OX..",
"p@@:1>wdafttw45>X++@O$*%*%%%oXoX.X...XOO;884%%OXXX",
"N##=>>66q3>>;@#+XXX%%*333*%%ooXX.X...o#%6lxs*::XXX",
"p%#:>>6685>>;#@@XXX%-%333%%%o XXX.X.X+%$7xzs%::XXX",
"N;%:>=<55>;;-+++XXo&-:333%%$oXXXXX.X.+%%4sgr-#-X++",
"B::;&&@+XXX.X+oo+++=>1888oooXX XXXXXoo%%%11*+XoOoo",
"B::;#&@X+X..XXXXX+o>>>888OooXX XXXXoXO%%%11:X+X+oO",
"B>:-&&+XXXX.XXX+++o>>>7q8oooX X XXXXoO%%%11-XXXooo",
"p@@+XXXX.X..X+o+=:>:*>266ooXXXXXXXX+o@%%%@OO. XXXX",
"pOOoX+X....XXoo@::**=*625ooXXXXXXXXO@@&*%@#O XXXXX",
"p+@oXXX.X...Xoo@>****:525ooXXXX XX++OO%*%@Oo   XXX",
"iooXXXX..XXXo@%>009&%%=*=@O@oXXo@@7tetaaw333%%%+oo",
"ioooXXXXXX.Xo%@>009&%&:::@OOoooo+@5ettfaa353&%%+oo",
"uooXXXXXXXXXo#%:w00%%%**:@@@ooX++@5eddaaa552&%%ooo",
"uXXoooXXXXX++-%:331%%@#@#XooXXX@@+>76ebcxjxh009&%%",
"yXXX++oXX+oX+;%:222@@$@#@ooXX+o+@@>66sbbbxxjw09%%%",
"yXXXX+X+X+XX+;%=221$O%@@@XXooXXOOO<66abbxxxje00%%&",
"yXX,767774@##%&=2>2244@@@XXXXXXXXX#=>6jhs000009%@%",
"yX.500tts6%%%&;;>21666@+@X.....X X@%%3fdd657000O@@",
"yXX4000te6%%%&%=1>1666@@@.X.X..XX +%&6ffr668000@@@",
"iXX488rdd6%%%%%=366fgg676++@XXX. Xo@+-44:@#%::*@%@",
"ioo,88rdd7#%#%%%666zxx0de;%#oXXXX.X+++%%+XXX@@+%#@",
"i++488rdd7%%%@%*678xxxsst%#%OXXX..o+++%#@XXX@OOO#@",
"A<4,:::,,:#$%%%%:12gssjggddd744#+++oO+@++XX+:=*8qq",
"Dq9;O@oXXo##%%%&;;;000jjjmmngr01@#++ooo++X+@223fff",
"Fq9,@+Oooo$O%%%%:**000jjjmmmg0a:@@+Ooo+O+Xo+222fff",
"Ftt5-;$%#%$%#%%%$O#444d0rMMMjfs4%%@o+oo++oX@1>2hhh",
"Ujj822433>@@%@%@oXooXX222MGGnxn9=*#@+oXXXXXO**1zxz",
"Uhj821434:%@@@@@oo XXX232MGGnvx9>>@+OX+XX+oO**1zxx",
"Lad822qea8::-@@+XXXXXX;::kzzjhh7=*@@@+XXXXX+%&:gfg",
"D662>1jGHl994o++XXXXXXoo+232332=%%%@@+XXXX.XXX+633",
"S6621>jGMx994+oXXXXXXXoo+326332=;&@@@+XXX..XX+o666",
"C24222jHHb005oooXXXXXXoo+>22112>==&@@@X+XXXXXXX533",
"i++468cKKnds7o+oXoXXXo@@#*>=:&&153:%&@++++XX+++;%&",
"i++<88zKKnds8oo+oXoooo@@@*:>;&%233:&&@@++X++XXX;&&",
"io+<77zJJntd7o+ooooooo@@#*>:%=&>33=;&#@++XXXXX+,**",
"uoXO$$4995--+XXX%@O%OO%%%>>1::::;*%##;22>%#&&@#q99",
"ioX@#%4994%%OX X#@O$%$%%%11>**=::*%%@*111%%%O@%899",
"uoX@#O2993%-@ XX@%%OO%%%%*>1>***:;%#%%22>%%%@@@899"
};
