/* XPM */
static char *left2[] = {
/* columns rows colors chars-per-pixel */
"50 50 174 2 ",
"   c #0C0702",
".  c #0E0903",
"X  c #110B04",
"o  c #160F08",
"O  c #15100B",
"+  c #1F1712",
"@  c #241A16",
"#  c #3F2818",
"$  c #372113",
"%  c #0F0B21",
"&  c #110D26",
"*  c #130F2B",
"=  c #15102D",
"-  c #1C172B",
";  c #1E192B",
":  c #161132",
">  c #221D27",
",  c #242027",
"<  c #2E2827",
"1  c #2A2528",
"2  c #2D2828",
"3  c #362C27",
"4  c #35322F",
"5  c #373530",
"6  c #393532",
"7  c #3F3A37",
"8  c #5E3B24",
"9  c #563722",
"0  c #473538",
"q  c #4B383F",
"w  c #473538",
"e  c #633F27",
"r  c #145805",
"t  c #156D05",
"y  c #176308",
"u  c #186608",
"i  c #176B0F",
"p  c #177707",
"a  c #177B06",
"s  c #187B07",
"d  c #17740B",
"f  c #1B750C",
"g  c #177A08",
"h  c #187A08",
"j  c #186A10",
"k  c #1B7C13",
"l  c #167915",
"z  c #20780E",
"x  c #6A4329",
"c  c #7B462A",
"v  c #6B6B25",
"b  c #74722A",
"n  c #787534",
"m  c #02554E",
"M  c #175A4D",
"N  c #19534A",
"B  c #015D54",
"V  c #006459",
"C  c #00685D",
"Z  c #176557",
"A  c #006D63",
"S  c #00746B",
"D  c #017D73",
"F  c #474840",
"G  c #4A4A42",
"H  c #514F4A",
"J  c #54514C",
"K  c #797657",
"L  c #7B7859",
"P  c #884D2E",
"I  c #87502F",
"U  c #8D5332",
"Y  c #835536",
"T  c #965935",
"R  c #9A5E39",
"E  c #98623E",
"W  c #A2653E",
"Q  c #9B6441",
"!  c #A66740",
"~  c #AA6C44",
"^  c #A06945",
"/  c #AE7048",
"(  c #B1754C",
")  c #B3784F",
"_  c #B57B51",
"`  c #B87E54",
"'  c #178205",
"]  c #188406",
"[  c #178C04",
"{  c #198C04",
"}  c #1A8409",
"|  c #1D8B0A",
" . c #1B9306",
".. c #1E930A",
"X. c #1F990A",
"o. c #1D8012",
"O. c #258509",
"+. c #208B0E",
"@. c #21940D",
"#. c #219C0C",
"$. c #218412",
"%. c #238A13",
"&. c #378C13",
"*. c #3B8C16",
"=. c #308E1F",
"-. c #259412",
";. c #279B12",
":. c #2A9B16",
">. c #2C941A",
",. c #2C9C19",
"<. c #289615",
"1. c #309C1E",
"2. c #25A60E",
"3. c #24A80D",
"4. c #26A410",
"5. c #29A412",
"6. c #2BA916",
"7. c #2DA019",
"8. c #2FAC18",
"9. c #33A41F",
"0. c #34AF1E",
"q. c #1C9E23",
"w. c #1B9724",
"e. c #328A25",
"r. c #3A8A2C",
"t. c #349B23",
"y. c #33A221",
"u. c #3CA72A",
"i. c #3EAE2A",
"p. c #38AC23",
"a. c #3AB325",
"s. c #3EB229",
"d. c #44A11F",
"f. c #46A220",
"g. c #4CA726",
"h. c #40AF2B",
"j. c #49A527",
"k. c #40B02B",
"l. c #49BC34",
"z. c #4DBC3A",
"x. c #46B533",
"c. c #51BF3D",
"v. c #58B23C",
"b. c #49A837",
"n. c #4FC13C",
"m. c #50C03D",
"M. c #01847A",
"N. c #01857B",
"B. c #539B47",
"V. c #549347",
"C. c #54A346",
"Z. c #53A846",
"A. c #58A64B",
"S. c #5DBA4E",
"D. c #5BB44D",
"F. c #67B959",
"G. c #61B453",
"H. c #7DBC72",
"J. c #5DC34B",
"K. c #64C752",
"L. c #6FC361",
"P. c #82815E",
"I. c #BC8256",
"U. c #BF8658",
"Y. c #878963",
"T. c #C18A5B",
"R. c #C6905F",
"E. c #C69260",
"W. c #CB9664",
"Q. c #CD9967",
"!. c #CF9A68",
"~. c #D19C6B",
"^. c #D3A070",
"/. c #018B81",
/* pixels */
"H.Z.Z.Z.Z.Z.C.B.B.A.F.F.G.Z.Z.C.B.B.V.F G G G F F G G F F F F B.S.S.S.S.S.S.S.S.S.S.S.S.S.S.S.S.S.S.",
"Z.{ { { { [ ' a p +.t.9.:.{ [ [ a a t . X X . X . X           f 3.2.2.3.3.3.2.3.3.2.3.2.2.3.3.3.3.3.",
"Z.{ [ { { { ' a a +.y.9.:.{ { { s s t . X X . . . . .   X .   z 2.2.2.2.2.2.2.2.2.2.2.2.3.2.2.2.2.2.",
"Z.{ { ] ' a | -.-.;.5.6.;.[ [ { s s t . . X . . . .     . . . z 2.2.2. .X. .| | |  .| @.k.k.a.2.3.2.",
"Z.{ { ' h s +.4.;.4.2.2.#.{ { ] s s t . . . . X .     .   . X z 2.2.#.{ { ' h h h h a %.c.c.l.2.2.2.",
"Z.{ | s h s +.4.5.5.2.2.2.{ { { s s d X X X . . . . . . .     f 2.2.X.{ { ' a a s s s %.c.m.l.2.2.2.",
"C.' } >.t.y.7.2.2.#.| +...#.#.#.t.7.=.. # 8 9 $ . . .   . .   y | @.| { { +.%.<.%.a a z 1.t.1.2.2.2.",
"B.a h h.m.m.a.4.2.X.s a ] 2.2.6.S.n.b.O x ~ W 8 . .     . . . r a a ] { { #.y.y.,.a h a s s } 2.2.5.",
"B.a a h.m.m.a.2.2.#.a a | 2.2.6.z.c.v.R ^ ~ ~ x X .       . . r a a ' { { -.y.y.,.h a a a a ' 3.2.2.",
"B.a p >.t.t.;.....} a a | 2.2.2.p.u.j.T W ~ ~ Y 9 + o .   X . y | | { ' ] ..:.:.<.} | | a a ' X.#.#.",
"B.a p p a a a a h a a a ] 2.2.2.{ { O.P T ! / ( ( 3 @ X     . f 2.2.@.h h ' { {  .2.2.#.a h a  .{ { ",
"B.a a a s s s s h h a a | 2.2.2.{ { O.U T R ` U.T.^ E E T P c *.2.2.| a h ' { {  .2.5.#.a a a { {  .",
"A.| | | | | ] ' ' ' ' s | #.#.@.{ { O.v b b L P.Y.K K K n b v &.#.#.{ a s ]  . .X.#.#.#.} | } ] ] { ",
"S.2.2.2.2.2.X.{ { | { { ] a s s { {  .4.4.4.A S D D M./.q.2.2.X.{ { ] a s ..2.2.#.{ {  .2.2.2.p a a ",
"S.2.2.2.2.2.#.{ { { { { ] a a s [ { [ 4.4.4.A A S S D /.q.4.2. .{ { ] a a | 2.2.2.{ { { 2.2.#.a a s ",
"S.2.2.#.@.#.| ] ] { { { { a a s [ [  .4.4.4.A A A A S M.w.2.#. .{ { ] ' s | #.2.#. . . .2.2.#.' } s ",
"S.3.4.} a h a s a ' { { { s s s { { { 4.3.4.A C V V C A l a s s s a ' { { { { {  .2.2.2.{ { { 2.2.3.",
"S.2.2.} h a a s a s { { } s s s { { { 3.4.4.C B m B B B l g g g s s ' { { { { {  .2.2.#.{ {  .2.2.3.",
"S.2.2.| s ' s s s s  . .{ s s ' { {  .4.3.X.Z Z N M M M l a a a s s ] { { {  . . .2.2.#.{ { { 2.2.#.",
"B.a s @.2.5.| p a O.2.2.#.{ { { { { { { [ [ I.I.` _ ( / *.{ { { { { { { { @.2.2.#.{ { { { { { a a a ",
"B.a p X.2.2.| a a | 2.2.#.{ { { { { { { { | U.R.T.` ` _ *.[  .[ { { { { {  .3.6.2.[ { { { { ] a a s ",
"B.a a @.2.4.@.a a | 2.2.#.{ { { [ [ { { { | R.R.T.T.T.I.*.[ [ [  .{ { { { #.3.2.#.{ { { { { { a s s ",
"C.{ { ' a h a a a ' { { { a s } 2.2.2.{ { O.R.Q.Q.!.Q.Q.d.2.4.X.{ { 9.z.n.a.2.6.#.{ { { { { { a a s ",
"Z.[ [ ' a a a a a ' { { ] a a s 2.2.2.{ { { R.Q.~.!.Q.~.d.2.2. .{ { 9.m.m.a.2.2.2.[ { { { { { p a a ",
"Z.{ { ' s p p h a ' | { ] a a s 2.2.2. . .O.R.!.~.~.~.~.d.5.2.@.{ { 9.c.c.s.2.2.2.{ { { { { ' a a a ",
"Z.{ { i.z.z.p.4.2.@.a a } 2.2.2.2.2.2.2.2.2.R.Q.!.!.~.^.g.2.3. .{ { ] } s @.2.2.#.{ { { { {  .4.2.2.",
"Z.{ { s.m.m.a.2.2.@.a a | 3.2.2.2.2.2.2.3.2.R.Q.~.~.~.~.g.2.2.@.{ { ' a a +.3.2.2.[ { { { {  .2.4.2.",
"Z.[ [ k.m.z.a.2.2.@.a a } 3.2.3.2.5.2.2.2.5.!.!.~.~.^.^.g.2.3. .{ { ] a a | 3.3.#.{ { { [ { { 2.4.2.",
"B.a a 5.8.8.;.' ' } a a s } O.} } } | 2.2.5.!.!.!.~.~.!.d.2.2.#.{ { [ ] ] { } } ] { [  .2.2.2.2.5.2.",
"B.s s #.2.2.+.a p a a a a a p a s s s 2.2.5.Q.!.!.!.!.!.d.2.3.@.{ { { { { ] s a s [ [  .2.2.2.2.2.4.",
"B.a h @.2.2...a a a a a a a a a a a s 2.2.5.W.W.W.~.~.~.d.3.3. .{ { { { { ' a s a [ {  .2.2.2.2.2.2.",
"D.X.@.| } | ] ] { ] ] ] | #.#.@.#.#.#. . . .w w w w w q O.@. .] ' s ' ' a ' s s ] #.#.2.2.2.2. . . .",
"S.3.3.} a a ' { { { { {  .2.2.2.4.2.4.{ { [ & & % & & * d [ { } s s s s a a a h } 5.2.2.2.6.3.{ [ { ",
"S.3.2.| p a ' { { { { {  .2.3.6.3.2.4.[ { [ = & & % & : f { [ ' s s s s a a h a } 2.2.4.2.2.2.{ { { ",
"A.{ | ....@.{ [ {  .#.#.2.2.2.2.2.2.2.{ { { & & & & : : k X.X.{ ] ' a a a } @.@.@.} | | 2.2.2.[ { { ",
"B.s a -.2.2.#.{ {  .2.2.2.3.6.2.2.2.2.{ { ' & & & * : : %.2.3.X.{ { ' a a | 2.2.#.h a } 2.2.#.{ { { ",
"B.a g X.4.4.X.{ {  .2.2.2.2.2.2.4.6.3.{ { [ * & & : : * $.4.3. .{ { ] a a { 2.2.#.a a } 2.2.2.{ [ { ",
"B.a d #.4.3.X.[ {  .X. .X.X.X.X.4.3.3.X.X.X.& & & & * : k X.X. .{ { ] a a } +.@.O.a a } 2.2.2.{ { { ",
"B.a g X.3.3.@. .{ { { { { [ {  .2.2.2.2.2.2.* * & * * : f { { { { { ] a a s s s a a a } 2.2.2.{  .[ ",
"B.a g #.3.5.X.{ { { { { { { {  .2.2.2.5.2.#.* & & & * : f [ { { { { ] a a a s s h h a } 2.2.#.{ { { ",
"B.a h @.3.2.#.X. .#.,.7.;.{ { { #.#.#.#.#.X.* & & * * : d ' ' ;.:.4.%.s a } ..X.....| @.X.X.X.X.#.X.",
"B.a h X.4.2.2.2.2.0.c.c.h.{ { { { { { { { { = & & * : = i h a u.m.S.y.s a | 2.2.2.4.3.#.{ {  .4.3.2.",
"B.a h @.2.3.2.2.2.0.m.c.k.{ { { { { { { { ] & & * : : : j s a u.m.m.t.s s | 2.2.2.2.2.2.{ [  .2.2.2.",
"B.a a @.#.@.#.#.#.5.h.u.9. . .@.] { ] ] ] ' = = = * : : f } } 9.i.s.,.| } ..X.#.#.4.2.3.[ [  .2.2.6.",
"B.a a s s a ] { { ] a a | 2.2.2.a a a a h p * * = * * : $.4.2.X.{ { X.3.2.X. .{ { 2.2.2.{ {  .2.4.2.",
"B.a s s s h ] { { ] a a | 2.2.#.a a h s h p > > ; = = : $.2.2. .{ { X.4.2.#.[ {  .2.2.2.{ {  .2.4.4.",
"C.} } h } h {  . .{ a a ] 2.2.#.a ' a } } h 1 1 > - - ; $.2.2.| ' [  .@.@.X.X. .X.3.2.4.:.:.;.2.2.3.",
"S.3.4.3.2.4.2.2.2.#.{ { { { { { { { { 2.2.4.5 4 2 2 2 6 f { [ } s s s a h } 3.3.2.2.2.8.m.m.l.2.2.4.",
"S.3.2.2.2.2.2.2.2.#.{ { { [ ' [ { { { 4.2.4.6 4 4 6 6 0 k { [ ' s s p a s | 4.4.4.3.4.8.m.m.l.4.4.4.",
"L.i.s.i.i.s.h.h.i.p.t.t.t.t.t.t.t.t.t.i.s.i.G G G H H J r.t.t.e.e.e.e.e.e.t.s.i.i.i.s.x.K.K.J.s.k.s."
};
