/* XPM */
static char *ondia2[] = {
/* columns rows colors chars-per-pixel */
"50 50 162 2 ",
"   c #0C392F",
".  c #0C3730",
"X  c #113B34",
"o  c #11551D",
"O  c #125C1B",
"+  c #177B06",
"@  c #187B07",
"#  c #16740C",
"$  c #177A09",
"%  c #187A08",
"&  c #136216",
"*  c #146B14",
"=  c #12601B",
"-  c #196F1F",
";  c #13681D",
":  c #157113",
">  c #1B7519",
",  c #1B7C17",
"<  c #105620",
"1  c #155F24",
"2  c #0F433A",
"3  c #164336",
"4  c #176423",
"5  c #176B27",
"6  c #136233",
"7  c #1A7532",
"8  c #296931",
"9  c #2D7B34",
"0  c #2A7734",
"q  c #145A4E",
"w  c #12564B",
"e  c #155E51",
"r  c #2D524C",
"t  c #30554F",
"y  c #156356",
"u  c #166558",
"i  c #176B5D",
"p  c #1A6054",
"a  c #186F60",
"s  c #197364",
"d  c #1B7B6B",
"f  c #22796A",
"g  c #42625D",
"h  c #4D6D68",
"j  c #486963",
"k  c #56746F",
"l  c #577470",
"z  c #5C7874",
"x  c #178205",
"c  c #188406",
"v  c #178C04",
"b  c #198C04",
"n  c #178109",
"m  c #1B8409",
"M  c #1D8C0A",
"N  c #1B9206",
"B  c #1E930A",
"V  c #1E990A",
"C  c #1E8419",
"Z  c #208B0E",
"A  c #21950D",
"S  c #219C0C",
"D  c #238B13",
"F  c #21821E",
"G  c #249512",
"H  c #289615",
"J  c #259B12",
"K  c #2A9B16",
"L  c #2C941A",
"P  c #2C9C19",
"I  c #309C1E",
"U  c #25A60E",
"Y  c #26A510",
"T  c #29A314",
"R  c #2BA916",
"E  c #2EA119",
"W  c #2FAC18",
"Q  c #34AF1E",
"!  c #328A26",
"~  c #329224",
"^  c #349B23",
"/  c #34A221",
"(  c #38AB24",
")  c #3EAD2A",
"_  c #3BA72A",
"`  c #3BB325",
"'  c #3EB02A",
"]  c #40B02B",
"[  c #49BC34",
"{  c #4DBB39",
"}  c #45B532",
"|  c #51BF3D",
" . c #4FC13C",
".. c #50C03D",
"X. c #1C806F",
"o. c #1D8876",
"O. c #1E8C7A",
"+. c #1C8473",
"@. c #268575",
"#. c #218D7B",
"$. c #208B74",
"%. c #20917E",
"&. c #539B46",
"*. c #54A346",
"=. c #53A846",
"-. c #56A549",
";. c #59AC4B",
":. c #58A54D",
">. c #5CB44D",
",. c #5EBA4E",
"<. c #67B859",
"1. c #61B453",
"2. c #51897F",
"3. c #7DBC73",
"4. c #5DC34B",
"5. c #64C753",
"6. c #6FC361",
"7. c #209581",
"8. c #219A85",
"9. c #23A28C",
"0. c #2AA18D",
"q. c #25AD96",
"w. c #3CAD9A",
"e. c #28B89F",
"r. c #3FB19D",
"t. c #27B9A0",
"y. c #28BBA1",
"u. c #589288",
"i. c #2CCDB1",
"p. c #31CFB4",
"a. c #3ACDB4",
"s. c #31DBBD",
"d. c #37D7BB",
"f. c #49D5BD",
"g. c #3AE2C4",
"h. c #44DDC2",
"j. c #44E2C6",
"k. c #47E8CC",
"l. c #49EBCF",
"z. c #42E5C9",
"x. c #5BE4CC",
"c. c #4AEDD1",
"v. c #53EED3",
"b. c #66EED7",
"n. c #6EEFD9",
"m. c #6DF0DA",
"M. c #73F1DB",
"N. c #8CF4E2",
"B. c #A2F6E7",
"V. c #A6F6E8",
"C. c #AAF7E9",
"Z. c #B2F6EA",
"A. c #BBF8ED",
"S. c #B9F3E9",
"D. c #CDF9F2",
"F. c #D1FAF3",
"G. c #DCFBF6",
"H. c #E9FCF9",
"J. c #E3F7F4",
"K. c #F6F7F7",
"L. c #F3FDFC",
"P. c #FDFEFF",
/* pixels */
"3.=.=.=.=.=.*.&.&.:.<.<.<.-.=.=.&.&.&.&.&.&.&.&.&.>.,.,.=.&.&.;.,.,.,.,.,.,.,.,.,.,.,.,.4.,.,.,.,.,.",
"=.b b v b b x + % Z I E K b b b $ + + + + + % % + V U U M $ + V U U U U U U U U U U U U U U U U U U ",
"=.b b b b b x + @ Z / / K b b b $ % + $ % % @ @ + J U U m % + B U U U U U U U U Y U U U U U Y Y U U ",
"=.b b c n + M G G J R Y S b b b + % % B A B A A B N M M B B B Y U U U V V N N b B M N A ] ] ` Y U U ",
"=.b b @ @ @ Z U T U U U S b b b + + + U U U U U U @ % % A Y U U Y U S b b c % % @ @ % D | | [ Y U U ",
"=.b b c @ @ Z T K Y U U S b b b $ + + Y U U U U U n % % V Y U U Y U V b b c @ % @ @ @ D | | [ U U U ",
"-.c @ L / ^ E U Y S B M V S S S ^ / ^ B V B V V A V B B M M B B Z N b b b Z L D D @ @ m I I I Y U U ",
"&.@ % ] ..| ` U U A + % m Y U R ....{ @ % + c b v U U U M % % $ @ @ c b b J / / L @ @ @ % % % Y U U ",
"&.+ @ ]  . .` U U A + + m U U R { | { + + + b b v U U U M $ + + + + n v v G / E L @ @ @ + @ c U U U ",
"&.@ % L ^ ^ G B B m + + M U U Y ( _ ( c x x c c x V S V B M m M M M b c c B K J H M M m @ @ c S U U ",
"&.+ % % @ @ % @ @ @ @ @ M U U U b b b b b b + + + c v v S U Y U Y U B % @ x b b N U Y S + @ @ b b b ",
"&.% % % @ @ @ @ @ @ @ @ m U U U b b b b b * & O & * * * > J U U Y U B @ @ n b b N U U S @ @ @ b b b ",
"*.c M M m M c c c c c @ b A A V b b b V M     . . . .     C U U S S b @ @ c N N V A S V m M M c c b ",
",.U U U U U V b b b b b c @ @ c b b c C F l l l k k k k l 9 C M b b c @ + B U U U v b V U U S @ + + ",
",.U U U Y U A b b b b b b @ @ @ v b n   3 P.P.P.P.P.P.P.L.h . * b b c @ @ b U U S v b N U U S @ + @ ",
",.U U U S S M b c b b b c @ @ @ M $ > g h H.H.H.H.H.H.L.L.2.e 5 $ n x @ c Z U U V N N N U U S c c @ ",
",.U Y M @ + @ @ @ @ b b c @ @ @ #   r P.P.B.B.B.B.B.B.D.D.x.s.s . O n b b b b b N U U U b b N U U U ",
",.U Y m @ @ @ @ @ c b b c % % # > t h L.L.B.B.B.B.C.Z.A.A.x.s.s   O x b b b b b N U U S b b b U U U ",
">.U S M @ c @ @ @ c N N b % * . g P.P.D.D.B.B.B.B.L.P.m.c.c.c.f   O x N b b b N N U U S b b N S U U ",
"&.+ % S U Y M + @ m U Y S b : . g P.L.D.D.V.C.V.V.H.P.M.v.c.l.@.2 ; c c b V U U U b b b b b b + + + ",
"&.+ + V U U B + @ M U U S b :   g P.L.V.V.P.P.F.D.F.F.F.F.M.c.g.s.d X = b V U U S b b b b b c + + + ",
"&.+ + A U U Z + @ m U Y S b : X g P.H.V.C.P.P.F.F.F.D.F.D.n.l.g.s.+.. O b V U U S b b b b b b + + + ",
"=.b b n @ + @ @ @ @ b b *   k K.J.V.Z.P.L.N.N.N.N.N.N.N.N.r.7.a.c.@.. 0  .` R U U b b b b b b + + + ",
"=.v b + + + + @ @ c b b * . k P.H.V.C.P.P.N.N.N.N.N.N.N.N.r.7.a.c.@.. 9 ..` U U S b b b b b b @ + + ",
"=.b b n + + + @ @ + b b *   k P.H.B.C.F.D.N.N.N.N.N.N.N.N.w.7.a.c.d.i.o.3 - U U U b b b b b c + + % ",
"=.b b ) { { ( U U A + + &   k P.H.B.C.F.D.N.N.N.N.N.N.N.N.r.7.a.c.g.s.#.. 4 U U S b b b b b N Y S U ",
"=.b b ] | | ` U U A @ @ &   k P.L.D.Z.f.f.N.N.N.N.N.N.N.N.r.%.%.#.#.O.u . 4 U U U v b b b b N U Y U ",
"=.b v ' | | ` U U A @ @ O   k P.L.D.S.i.i.N.N.N.N.N.N.N.N.r.7.+.d d d q . 4 U U S b b b b b b U Y U ",
"*.+ @ T R W S m m c @ @ & . l P.G.m.b.z.z.w.w.w.w.w.w.w.w.y.i.e.e.9.O.u . < m m c v v N U S U U U U ",
"&.@ + A U U Z @ @ @ @ @ & . l P.F.c.c.c.k.7.%.7.%.7.7.7.%.y.i.i.i.q.7.u . o @ + @ N v N U U U U U R ",
"&.+ @ A U U A + @ @ @ @ # & 8 z u.c.j.0.9.t.t.t.t.t.y.t.e.9.%.e.i.o.w 6 * # @ @ c b v b U U U U U U ",
">.V S Z m c c c c c b c b A , . e c.h.d +.i.i.i.i.i.i.i.i.O.d q.i.d . O n + @ @ c S S U U U U N N V ",
",.U U b + @ c b b b b b N U C   e g.d.d d i.i.i.i.i.i.i.i.7.d 8.q.i . o @ @ @ @ c Y U U U Y U N b b ",
",.U U m @ @ c b b b b b V U C   q s.i.d X.i.i.i.i.i.i.i.i.7.d o.7.e . o @ @ @ @ m Y U U U Y U b b b ",
":.M M B A B N b b N A S U U G - 7 O.o.+.O.i.i.i.i.i.i.i.i.8.o.s u 6 O * % m B A A M m M U U U b v b ",
"&.$ % S U U V v b N U U U U U U C . 2 7.8.i.i.i.i.i.i.i.i.9.7.q   & n + % M U U A % + m Y U S b b b ",
"&.+ @ V U U V b b N U U U U U U J 5 5 a a O.O.O.O.O.O.O.O.s a 6 O : c + + M U U A % @ n Y Y U b b b ",
"&.+ + A U U V b b N V V V V V V U Y G . .       . . .   .     * b v c + @ c A M M @ @ m Y Y U b v b ",
"&.+ $ V U U V b b b b b b b b b U U J 1 1 1 o o < < < < < < < $ N b c @ @ @ @ @ @ @ % c U U U b b b ",
"&.+ $ A R U V b b b b b b b v N U U U Y U Y N b v v v v v v M v v v x + @ @ @ @ @ @ @ c U U U b v N ",
"&.+ @ V Y U S V V A E E J b b b S S S S S V b c x N V V b c c A P E G @ @ m B b A b A Z V V V V S V ",
"&.+ % A U Y U U U Q ....] b b b b b b b b b + @ @ S U U M @ @ _ ....^ $ % b U U Y Y U S b b N U U U ",
"&.+ @ A U U U U U Q { ..] b b b b b b b N b + + + U U U m @ @ _ ....^ @ $ M U U U U U S b v N U U U ",
"&.+ + Z S S S S U T _ _ E N V A c c b c c c c + @ V S S B m Z E ) ] P m M B U S U U U U v b N U U U ",
"&.+ + @ @ @ c b b b @ @ M Y Y U + @ @ @ + % b b b b b b U U U N b b V U U A N b V U U S b N N U U U ",
"&.+ @ @ @ @ c b b c @ @ c Y U U + @ @ @ @ + b v b b b b S U U N b b V U U V v b N U U U b b N U U R ",
"*.c n n c @ M N b b @ @ c U U A x @ @ m @ n b N N b b b A U U b c c N S A V N V V U U Y K K S U U U ",
",.U U R U U U U U S b b b b b b b b b U U Y U U U + + + c b b c + @ + + @ M U U U U U W | ..[ U Y Y ",
",.U Y Y Y Y U Y U S b b b v v v c b b U U U U U Y @ @ @ c b v n + + + + % M Y Y U U U W ....[ Y U U ",
"5.) ] ] ] ] ] ] ` _ ^ ^ ^ ^ ^ ^ ^ ^ ^ ) ] ' ) ] ] ~ ! ! ~ ^ ^ ~ ! ! ! ! ! ^ ) ) ' ] ] } 5.5.4.' ' ' "
};
