/* XPM */
static char *ondia2[] = {
/* columns rows colors chars-per-pixel */
"50 50 160 2 ",
"   c #0D3D2D",
".  c #0C3730",
"X  c #0D3D35",
"o  c #143D37",
"O  c #11581F",
"+  c #167C07",
"@  c #187B07",
"#  c #17770A",
"$  c #177A09",
"%  c #197A08",
"&  c #14661D",
"*  c #167212",
"=  c #187515",
"-  c #177913",
";  c #197A14",
":  c #19701F",
">  c #1C7C19",
",  c #0F4A25",
"<  c #0E4429",
"1  c #0F4928",
"2  c #114C2B",
"3  c #104A25",
"4  c #105120",
"5  c #165828",
"6  c #0E4139",
"7  c #10433A",
"8  c #145B3F",
"9  c #265E38",
"0  c #176822",
"q  c #1D6627",
"w  c #156333",
"e  c #30723B",
"r  c #114B41",
"t  c #125147",
"y  c #125449",
"u  c #145B4F",
"i  c #315650",
"p  c #156255",
"a  c #176A5C",
"s  c #197263",
"d  c #1B7B6B",
"f  c #4D6C67",
"g  c #5D7A75",
"h  c #198406",
"j  c #198D05",
"k  c #17800B",
"l  c #1B830A",
"z  c #1D8B0B",
"x  c #178105",
"c  c #1C9107",
"v  c #1F9A09",
"b  c #1C8117",
"n  c #1F8F14",
"m  c #1F8719",
"M  c #218E0E",
"N  c #20950D",
"B  c #219C0D",
"V  c #238912",
"C  c #218819",
"Z  c #239612",
"A  c #249D12",
"S  c #2B951B",
"D  c #2A9B16",
"F  c #319D1F",
"G  c #26A70F",
"H  c #25A80E",
"J  c #26A610",
"K  c #29A313",
"L  c #2FA21B",
"P  c #30AC1A",
"I  c #359D24",
"U  c #35A222",
"Y  c #3EAA2C",
"T  c #3EB528",
"R  c #3AB325",
"E  c #41AB2D",
"W  c #41B12D",
"Q  c #49BC34",
"!  c #48B735",
"~  c #51C03D",
"^  c #1D8674",
"/  c #1E8977",
"(  c #1E8C79",
")  c #1F917D",
"_  c #238F7D",
"`  c #549B47",
"'  c #499747",
"]  c #54A447",
"[  c #54A946",
"{  c #58A44B",
"}  c #5EBB4E",
"|  c #68B95A",
" . c #62B454",
".. c #7DBC73",
"X. c #60C44E",
"o. c #67C855",
"O. c #71C464",
"+. c #209581",
"@. c #219984",
"#. c #26A48F",
"$. c #25AB94",
"%. c #2FAC97",
"&. c #24A790",
"*. c #27B69D",
"=. c #28B79D",
"-. c #29BCA3",
";. c #37BAA3",
":. c #4BBBA8",
">. c #2AC4A9",
",. c #39C3AB",
"<. c #2CCDB1",
"1. c #3CC9B1",
"2. c #2ED0B3",
"3. c #3CD0B6",
"4. c #3ED6BC",
"5. c #30DBBD",
"6. c #40CEB6",
"7. c #49D5BD",
"8. c #41D4BB",
"9. c #61CEBB",
"0. c #37E0C2",
"q. c #3EE0C4",
"w. c #4ADAC1",
"e. c #5FDFC9",
"r. c #45E9CD",
"t. c #4AEDD1",
"y. c #5CEBD2",
"u. c #5CE1CA",
"i. c #74E1CE",
"p. c #6EF1DA",
"a. c #71F1DB",
"s. c #8CA49C",
"d. c #96A9A5",
"f. c #9DAFAC",
"g. c #A3B3B0",
"h. c #B8C5C3",
"j. c #86E8D7",
"k. c #90ECDC",
"l. c #80F2DF",
"z. c #8CF4E2",
"x. c #9BF5E5",
"c. c #A2F6E7",
"v. c #A9F7E9",
"b. c #B5F8EC",
"n. c #BCF8EE",
"m. c #CED7D5",
"M. c #C7E0DB",
"N. c #CEE4E0",
"B. c #C1F9EF",
"V. c #CCFAF2",
"C. c #C6F9F0",
"Z. c #D1FAF3",
"A. c #DBFBF6",
"S. c #D7F3EE",
"D. c #EEF1F1",
"F. c #E0FCF7",
"G. c #E5FCF8",
"H. c #E9FDF9",
"J. c #FFFFFF",
"K. c #F3FEFC",
/* pixels */
"..[ [ [ [ [ ] ` ` { | |  .[ [ [ e o   . . . . . . . . . . . . . . e } } } } } } } } } } } } } } } } ",
"[ j j j j j h + % M U U S k k + q i i i i i i i i i i i i i i i i e n N Z Z H H H H H H G G H H H H ",
"[ j j c j j h + % V U U q . . . g J.J.J.J.J.J.J.J.J.J.J.J.J.J.J.J.f.. . . 2 H H G G H G G G J J G G ",
"[ j j h h h z N Z A K K q . . . g J.J.J.J.J.J.J.J.J.J.J.J.J.J.J.J.f.. . . < z z z z n Z T T R J G G ",
"[ j j @ % % M K K G G G 0 . . . g J.J.J.J.J.J.J.J.J.J.J.J.J.J.J.J.f.. . . < % @ % % % V } ~ Q G G G ",
"[ j j h % % M G D J G G 0 . . . g J.J.J.J.J.J.J.J.J.J.J.J.J.J.J.J.f.. . . < + + + % % V ~ ~ Q G G G ",
"] h V S I U F G 5       s.D.D.D.S.v.v.v.v.v.v.v.v.v.v.v.v.C.Z.Z.Z.k.<.<.<.=.X       + l F F F G G G ",
"` % % E ~ Q R G 2 . . . d.J.J.J.F.c.c.c.c.c.c.c.c.c.c.c.c.B.Z.Z.Z.k.5.5.5.>.. . . . # % + @ h G G G ",
"` @ % E ~ ~ R H 2 . . . d.J.J.J.A.c.c.c.c.c.c.c.c.c.c.c.c.B.Z.Z.Z.k.5.5.5.>.. . . . + % + % l H G G ",
"` @ % S I I D z , . . . d.J.J.J.F.c.c.c.c.c.c.c.c.c.c.c.c.n.Z.Z.Z.k.5.5.5.-.. . .   b l % @ h B B B ",
"` @ % % , 3 , , d.h.h.h.N.F.A.A.C.c.c.c.c.c.c.c.c.A.G.G.G.x.a.a.p.y.r.r.r.1.. . . . A B @ % @ j c j ",
"` @ % % . . . . m.J.J.J.G.Z.Z.Z.C.c.c.c.c.c.c.c.c.K.J.J.J.z.t.t.t.t.t.t.t.1.. . . . J B @ @ + j j j ",
"{ z l z . . . . m.J.J.J.G.Z.Z.Z.B.c.c.c.c.c.c.c.c.K.J.J.J.z.t.t.t.t.t.t.t.6.. . . . N B z l z j j h ",
"} H J J . . . . m.J.J.J.G.Z.Z.V.B.c.c.c.c.c.c.c.c.K.J.J.J.z.t.t.t.t.t.t.t.6.. . . . h c G H B % + % ",
"} H G G . . . . m.J.J.J.A.n.n.n.B.V.Z.Z.C.n.b.n.n.F.H.H.H.v.z.z.z.a.t.t.t.w.^ ^ ^ ^ & & : : n + + % ",
"} H G B . . . . m.J.J.J.C.c.c.c.B.J.J.J.J.Z.Z.Z.Z.Z.Z.Z.Z.Z.Z.Z.V.x.t.t.t.r.5.5.5.5.6   . . > k h k ",
" .H K l . . . . m.J.J.J.C.c.c.c.B.J.J.J.J.V.Z.Z.Z.Z.Z.Z.Z.Z.Z.Z.Z.x.t.t.t.r.5.5.5.5.X . . . - J J H ",
"X.H G l . . . . m.J.J.J.C.c.c.c.B.J.J.J.J.Z.Z.Z.Z.V.Z.Z.Z.Z.V.Z.Z.x.t.t.t.r.5.5.5.5.6 . . . - J J J ",
"' m C = f f f f M.G.H.H.Z.n.n.n.C.F.F.F.A.B.n.n.n.B.B.n.n.B.B.n.n.k.8.4.4.4.0.0.0.0.6 . . . = J J B ",
".   . o J.J.J.J.b.c.c.c.Z.J.J.J.A.z.z.z.z.z.z.z.z.z.z.z.z.z.z.z.z.9.+.+.+.#.t.t.t.t.6 . . . * # + + ",
". . . o J.J.J.J.b.c.c.c.A.J.J.J.A.z.z.z.z.z.z.z.z.z.z.z.z.z.z.z.z.9.+.+.+.#.t.t.t.t.6 . . . * + + + ",
". . . o J.J.J.J.b.c.c.c.Z.J.J.J.Z.z.z.z.z.z.z.z.z.z.z.z.z.z.z.z.z.9.+.+.+.#.t.t.t.t.6 . . . * $ + + ",
". . . o J.J.J.J.b.c.c.c.Z.J.J.J.A.z.z.z.z.z.z.z.z.z.z.z.z.z.z.z.k.9.+.+.+.#.t.t.t.t.r X X X * # # # ",
". . . o J.J.J.J.b.c.c.c.n.Z.V.Z.n.z.z.z.z.z.z.z.z.z.z.z.z.z.z.z.x.9.+.+.+.#.t.t.t.t.0.5.0.5.a . . . ",
". . . o J.J.J.J.b.c.c.c.n.Z.Z.Z.n.z.z.z.z.z.z.z.z.z.z.z.z.z.z.z.z.9.+.+.+.#.t.t.t.t.5.5.5.5.a . . . ",
". . . o J.J.J.J.b.c.c.c.n.Z.Z.Z.n.z.z.z.z.z.z.z.z.z.z.z.z.z.z.z.z.9.+.+.+.#.t.t.t.t.5.5.5.5.a . . . ",
". . . o J.J.J.J.n.c.c.c.n.Z.Z.Z.n.z.z.z.z.z.z.z.z.z.z.z.z.z.z.z.z.9.+.+.+.@.t.t.t.t.5.5.5.5.a . . . ",
". . . o J.J.J.J.Z.V.C.C.j.8.7.7.e.z.z.z.z.z.z.z.z.z.z.z.z.z.z.z.z.9.+.+.+.+.+.+._ +.( ( ( ( r . . . ",
". . . o J.J.J.J.A.Z.Z.Z.i.<.<.<.w.z.z.z.z.z.z.z.z.z.z.z.z.z.z.z.z.9.+.+.+.+.d d d d d d d d r . . . ",
". . . o J.J.J.J.A.Z.Z.Z.i.<.<.<.w.z.z.z.z.z.z.z.z.z.z.z.z.z.z.z.z.9.+.+.+._ d d d d d d d d r . . . ",
". . . o J.J.J.J.A.Z.Z.Z.i.<.<.<.w.z.z.z.z.z.z.z.z.z.z.z.z.z.z.z.z.9.+.+.+.( d d d d d d d d r . . . ",
". . . o J.J.J.J.x.a.z.a.y.q.q.w.8.:.:.:.:.:.:.:.:.:.:.:.:.:.:.:.:.;.*.*.-.*.$.$.$.$.^ _ ( ( t . . . ",
". . . o J.J.J.J.p.t.t.t.t.t.t.t.3.+.+.+.+.+.+.+.+.+.+.+.+.+.+.+.+.$.<.<.<.<.<.<.<.<.@.+.+.+.y . . . ",
". . . o J.J.J.J.p.t.t.t.t.t.t.t.3.+.+.+.+.+.+.+.+.+.+.+.+.+.+.+.+.$.<.<.<.<.<.<.<.<.@.+.+.+.y . . . ",
". . . o J.J.J.J.p.t.t.t.t.t.t.t.3.+.+.+.+.+.+.+.+.+.+.+.+.+.+.+.+.$.<.<.<.<.<.<.<.<.@.+.+.+.y .   . ",
"9 4 4 5 g.g.g.g.u.t.t.t.4.,.,.,.;.$.$.$.$.$.$.$.&.$.$.$.$.$.$.$.$.$.$.$.$.*.<.<.<.<.s s s s w 4 O O ",
"` @ % Z . . . . ,.t.t.t.%.d d d +.<.<.<.<.<.<.<.<.<.<.<.<.<.<.<.<.$.d d d / <.<.<.<.6 . . . b j j j ",
"` @ % N . . . . 6.t.t.t.%.d d d @.<.<.<.<.<.<.<.<.<.<.<.<.<.<.<.<.$.d d d / <.<.<.<.6 . . . b j j j ",
"` + % N . . . . 6.r.t.t.%.d d d +.<.<.<.<.<.<.<.<.<.<.<.<.<.<.<.<.$.d d d / <.<.<.<.6 . . . b j j j ",
"` + % B . . . . ,.r.r.r.%.d d d +.<.<.<.<.<.<.<.<.<.<.<.<.<.<.<.<.$.d d d / >.>.>.>.6 . . . b j j j ",
"` % # N . . . . -.5.5.5.#.d d d @.<.<.<.<.<.<.<.<.<.<.<.<.<.<.<.<.$.d d d d +.+.+.+.X . . . > v G v ",
"` % % N . . . . =.5.5.5.#.d d d +.<.<.<.<.<.<.<.<.<.<.<.<.<.<.<.<.$.d d d ^ +.+.+.+.X . . . - J H H ",
"` + % N . . . . -.5.5.5.@.d d d +.<.<.<.<.<.<.<.<.<.<.<.<.<.<.<.<.$.d d d d +.+.+.+.X . . . - J J J ",
"` + % M . . . . -.5.5.5.#.d d d +.<.<.<.<.<.<.<.<.<.<.<.<.<.<.<.<.$.d d d ^ +.+.+.+.X . . . - J J J ",
"` + % % # # k j 2 7 6 7 s +.+.) &.<.<.<.<.<.<.<.<.<.<.<.<.<.<.<.<.*.+.+.+.^ . X X X A B h h c H G J ",
"` @ % % @ @ h j 1 . . . a @.+.@.&.<.<.<.<.<.<.<.<.<.<.<.<.<.<.<.<.*.+.+.+.^ . . . . A A c j c H G G ",
"{ l k h k l z c 1 . . . a +.+.+.$.<.<.<.<.<.<.<.<.<.<.<.<.<.<.<.<.*.+.+.+.^ . . . . A J D D K J G G ",
"} H G G H J H G 2 . . . a +.+.+.$.<.<.<.<.<.<.<.<.<.<.<.<.<.<.<.<.*.+.+.+.^ . . . . K P ~ ~ Q J G G ",
"} H H G G H G G V b # = w t t t y p p p p p p p p p p p p p p p p u t t t y m m m m J P } ~ Q J J H ",
"O.W W W W W W W W E I I q . . . . . . . . . . . . . . . . . . . . . . . . 2 T T W W W ! o.X.X.T W Y "
};
