/* XPM */
static char *potal2[] = {
/* columns rows colors chars-per-pixel */
"50 50 28 1 ",
"  c #35013E",
". c #2F014C",
"X c #330044",
"o c #31004C",
"O c #2F0153",
"+ c #2F0159",
"@ c #310053",
"# c #32005C",
"$ c #39015F",
"% c #340063",
"& c #390165",
"* c #35006A",
"= c #3A016C",
"- c #3C0173",
"; c #3F0179",
": c #41036C",
"> c #420275",
", c #44017B",
"< c #49037D",
"1 c #470181",
"2 c #4C0283",
"3 c #4F0289",
"4 c #510386",
"5 c #54028A",
"6 c #5A038D",
"7 c #5C0392",
"8 c #60028F",
"9 c #630493",
/* pixels */
",;;455211;====**%%%%%**-***=O..+#+-,;;-,*@#OXXooXo",
";,,3552<<;=-=*=%%%#%%%-*-==*O..@++-;,-;>=@+oXoXoXo",
",;,344111;--=*=%%%%%**==-**=@o.@++-;;,--*++@XXXooo",
",,1,<<,,,;;;*++OXXO#%%***--;#@##%+=--*##@oOo@#@@@@",
"<<,,,;;,;,<,&#@@ Xo$%%%**;;;%#%#%+*--%#+@o..##OOO@",
",<<,,,,;>,;1=@@o  o##%*%*;;;%##+##=--&@+@o.@###+@@",
"%%%*==;;>&$$@XXo++#,,,=--232-=-==*,22,**#...oXo%%#",
"@##*=%;>,$.ooXXo%%=232---455;---==<55<--&.OX XX%%*",
"###**=;,,$o@o Xo%%=222---565,-;-*-<44<-=&oooX X&**",
"ooo%*%%$#@oo@@@&<<<221#+#===&%%+$@=,;<22>&&@XXXo@o",
"XXX%%*#oo.XX@%%:45422<@@@++++#+oo.%=-<574==&XXXXXX",
"XXX%%*@@@.XX@%#>55521<O@@######ooX%-=1754=::XX X X",
"ooo###oo.@@@&>>,42<&=&o.oooo#%#ooo@#$=<<<,,>$#@XXX",
"@@o@o@oXo@%#-222<<-o.oXXoX.X##%oXXoXX@=*>22<=-&oXo",
"O@O@@OoXX#%#>2422<>@oOXX.X..#%%ooooXX$*=-321==&XXX",
"#%###+@@@&>:,22>&&&oX.Ooo.O.&%*###oXX@$#=<,,<<>#@$",
"-;;%%+***<562,>=@OoXXX#@###%*=--=-#XXooO#**;866>=-",
"---%%%*=*255<,,=@OoXXX######*=-=--@XXo.@#%%-876=-=",
",;,%+%*==244<==&oooXoo%#%%&*===;,>$@@ooo@#%&554;;-",
"2<1*%%-;;,22:o@XXXX@@#>;;,<<;--244,*=#XXooX#;;>,<1",
"<22%%%-;;<12=ooXX X@@#>;;,<<--=244,--#XXoXo@,>><,<",
"<1<%%#-;;>11*oooXXo#@#=--<12---224<--&ooooo@--;,,;",
"&*%ooX#%%***#@@O######%#%799,,,;;-5772--&oX.@@@##%",
"**%ooX#*%%%*#@@##@##%####979<,,---4762--&ooo@.+%%%",
"***ooX#%%%**#+@@@########797<,,-;-4662--%.ooO@@#%%",
"=**+@O#%#%%*#@+@OOO.@.o@@%%%&%&<33232>+%#o..O+@-;-",
"=**+OO#+%%%%#@+OO@Oo.oO@@%%&%%%133222=##@.o.OO#;-;",
"==-++O%%#%&*%@@@O@.o.O@o@###%%%,22222-%%@o..@@#,;,",
"<2<&#%*=-,<<&O@@XXo...oooooO%%%=>=>,,;===+%%***433",
"223&%#=;-<23:oOoXXXooo..ooXo%%%***;>;;--=%#%**=443",
"443%%%---234:+@oXX..o.oooooo#*%*=*;>,;--*%%%==-544",
"===#+@###<45<<<=OooXXo@@@####+#&**>44,,,=@@@@##-:-",
"%%%@@o@#+>55545>@@o X +###%%#@#%=*<452>>=@o@@O@&**",
"%%%#@O@##<56544>.@o  X+###%###@%*%2552,,=@@@OOO***",
"%%%#@@ooo&=&>232><:@@@#++%%%&%&,2<222>$##XXo##%**=",
"%%%###oXX@@#=323442#####+%%%*=*466211=o.X  o*%*---",
"%%%#@#oXX@#O:424442#++%+%%%%***4664<1&..X  o&%&--=",
"=**>>>$@@@@@&=&<552>;-%*%***,1<455,==$X.o#@$,,>-;;",
"-=-566=##@XX@O@&55423<******357423*@@oXX@&*-566<,,",
"-;-566=#%ooooO@:555322******566344&##oXXo=%-774,,,",
"---555<:>#o@.oo$><<22<===**=345>>>&@@O@O$<<<454---",
"*&*255677:##oXXo#@&<<2--;;--222$@@...#=*>99611,&**",
"%**255779:##@X X##%12<;-=--;123#@OO..#**<996121&*%",
"**%<<<566>=&$XXo@@#>;>==*=*=;>>#..@@@&>-<664>>-%%%",
"%*****266333:ooo.XO%%%%%%%+%#++XX $&%<995,<=+#+%%%",
"*%***&466325:oOoX..###+###%+++#X  #%*<975;,-+++%%%",
"%%%*==255312=@$o..O%%%%%%%%%+++.XX#==<674-:=O@O%#+",
"##+<21,,,-->=**&%#%-----==**%%%%&#>44<-;&@@@...###",
"+#@<11,;;;--=*=*%#%--;---=***%%#%+,22<--*o@@..o##+",
"#+#,12,,;;---*=%%%%------=-*%%#%&+<22<;-*O@oo..#+#"
};
