/* XPM */
static char *right2[] = {
/* columns rows colors chars-per-pixel */
"50 50 174 2 ",
"   c #0B0602",
".  c #0E0903",
"X  c #110B04",
"o  c #150E08",
"O  c #1C130F",
"+  c #211710",
"@  c #26170C",
"#  c #36261F",
"$  c #0F0B20",
"%  c #110D26",
"&  c #130E2B",
"*  c #111027",
"=  c #14102C",
"-  c #1A152C",
";  c #1E182B",
":  c #161131",
">  c #181235",
",  c #221D27",
"<  c #2E2929",
"1  c #292427",
"2  c #332E2C",
"3  c #36322E",
"4  c #373630",
"5  c #393432",
"6  c #3F3A37",
"7  c #402716",
"8  c #402816",
"9  c #4C311E",
"0  c #56341E",
"q  c #5C3B24",
"w  c #4B393B",
"e  c #493637",
"r  c #165907",
"t  c #156E05",
"y  c #186B0B",
"u  c #177707",
"i  c #177B06",
"p  c #187B07",
"a  c #1B740D",
"s  c #177A08",
"d  c #187A08",
"f  c #186710",
"g  c #176810",
"h  c #1B7B14",
"j  c #137A1A",
"k  c #1A7111",
"l  c #20720D",
"z  c #217910",
"x  c #437919",
"c  c #6C452B",
"v  c #7D4A2B",
"b  c #726E28",
"n  c #79732C",
"m  c #767334",
"M  c #696724",
"N  c #4E3A41",
"B  c #03564E",
"V  c #13594E",
"C  c #16544B",
"Z  c #015C53",
"A  c #145F53",
"S  c #016056",
"D  c #00655A",
"F  c #00685C",
"G  c #136A5A",
"H  c #006D63",
"J  c #00746B",
"K  c #017D72",
"L  c #494C42",
"P  c #4F4D48",
"I  c #514F4A",
"U  c #54504B",
"Y  c #706546",
"T  c #71694A",
"R  c #7C7A5A",
"E  c #7B7656",
"W  c #884F2F",
"Q  c #844F2E",
"!  c #8B5432",
"~  c #895838",
"^  c #9D5F39",
"/  c #965935",
"(  c #A2643D",
")  c #A46942",
"_  c #A56A42",
"`  c #AD7047",
"'  c #AE7149",
"]  c #B0744B",
"[  c #B4794F",
"{  c #B67E52",
"}  c #B87F54",
"|  c #178305",
" . c #188406",
".. c #178C04",
"X. c #198C04",
"o. c #1A8409",
"O. c #1C8B0A",
"+. c #1B9206",
"@. c #1E9309",
"#. c #1F990A",
"$. c #218A0D",
"%. c #248509",
"&. c #21950D",
"*. c #219C0C",
"=. c #218314",
"-. c #238911",
";. c #3C8B15",
":. c #308E1E",
">. c #378D13",
",. c #259412",
"<. c #279B12",
"1. c #2A9B16",
"2. c #2C941A",
"3. c #2C9C19",
"4. c #289615",
"5. c #309C1E",
"6. c #25A60E",
"7. c #28A60F",
"8. c #26A410",
"9. c #29A412",
"0. c #2BA916",
"q. c #2DA119",
"w. c #2FAC18",
"e. c #32A41E",
"r. c #34AF1E",
"t. c #1C9E25",
"y. c #1B9726",
"u. c #328B25",
"i. c #3A882C",
"p. c #349B23",
"a. c #33A221",
"s. c #38AC23",
"d. c #3CA72A",
"f. c #3EAE2B",
"g. c #3AB325",
"h. c #3EB12A",
"j. c #468D1A",
"k. c #4BA324",
"l. c #40AD2B",
"z. c #47A320",
"x. c #40B02B",
"c. c #49BC34",
"v. c #4DBC3A",
"b. c #45B533",
"n. c #51BF3D",
"m. c #48A937",
"M. c #4FC03C",
"N. c #50C03D",
"B. c #01847A",
"V. c #01857A",
"C. c #539B47",
"Z. c #559448",
"A. c #53A346",
"S. c #53A846",
"D. c #58A64B",
"F. c #5DBA4E",
"G. c #5BB44D",
"H. c #65B757",
"J. c #7DBC73",
"K. c #5DC34B",
"L. c #64C752",
"P. c #6FC361",
"I. c #BB8255",
"U. c #BF8758",
"Y. c #BE8A5A",
"T. c #C1895A",
"R. c #C5915F",
"E. c #C69461",
"W. c #CB9665",
"Q. c #CD9967",
"!. c #CF9A68",
"~. c #D19C6B",
"^. c #D3A070",
"/. c #018B81",
/* pixels */
"J.S.S.S.S.S.A.C.C.D.H.H.H.S.S.S.C.C.Z.L L L L L L L L L L L L C.F.F.F.F.F.F.F.F.F.F.F.F.F.F.F.F.F.F.",
"S.X.X...X...| i i =.a.a.3.......i s t                       . a 6.6.6.6.6.6.6.6.6.6.6.6.6.6.6.6.6.6.",
"S.X.X.X.X.X.| i i O.a.e.3.....X.i u t       . . . . . . . . . z 6.6.6.6.6.6.7.6.7.7.6.6.7.7.7.7.6.6.",
"S.X.X. .| i O.,.,.<.9.0.<.....X.i i t   . .   .   . . . . . X a 6.6.6.&.+.+.+.+.O.X.O.#.g.g.g.7.6.6.",
"S.X.X. .d d $.8.1.8.6.6.6.X.X.X.i i t   . .       . . .   . . a 6.6.*..... .p p s s d -.n.n.c.6.6.6.",
"S.X.X.| d i O.9.9.8.6.7.#.X.X.X.u i t   . . . . X . . . . X X l 6.6.#.....o.p p s s d -.n.n.c.6.7.6.",
"A. . .2.p.a.q.8.8.*.O.O.@.#.#.*.p.a.:.  . . . . . . @ 0 q 0 X y O.&.O...X.$.2.-.-.i i o.p.p.5.6.6.6.",
"C.u i d.K.N.g.8.8.#.p i O.8.6.0.K.v.m.  . . . . . . 7 ( _ ~ o r i i  .....<.a.a.3.s p p u u | 6.6.6.",
"C.i u d.M.M.g.6.6.#.i i  .6.6.0.N.N.m.. . .   .   . 7 ( ( _ ) z i i  .....&.a.a.2.u i i p p  .6.6.6.",
"C.i d 2.p.a.4.@.@.o.i i O.6.6.9.s.d.p.. . . . o O 9 c _ ( ( _ x O.o... . .$.1.1.4.O.O.O.u u | *.6.*.",
"C.i u u p u i i i d i d O.6.6.6.....| . . . . + # ) ' ' ^ / ^ j.6.6.&.p p  .....+.6.6.*.p p p ......",
"C.i p p u d d i p p p p o.6.6.6.....%.v Q W W ! ! ' ] ] ^ / W j.6.6.&.u p  .....+.6.7.*.p p p ......",
"D.X.O.O.O.O.o. .| | | p O.&.*.&.....%.b n m T T T E R R ~ b M >.*.*.O.i u ..+.+.#.*.*.#.O.o.O.......",
"F.6.7.7.6.6.#.X.X.X.X.X.X.p p | X.X.X.6.6.8.H J K B.V./.t.7.6.#.X... .i i O.6.6.6.....+.7.6.*.u i i ",
"F.6.6.6.8.8.#...X.X.X.X. .p p p X.X.+.6.7.8.H H H J K V.t.6.6.#..... .u i O.6.6.6.....O.6.6.*.u i s ",
"F.6.6.*.#.*.@.|  .X.X.X. .p p p X.X.X.7.7.8.H H H H J B.y.*.6.+.....|  .p O.6.6.#.+.+.@.6.6.*.| o.p ",
"F.6.6.O.p u u u u  .X.X.X.p u p X.X.+.6.6.8.H F D D F H j u p p p p | ..X.X.X.X.+.6.6.6.X.X.X.6.7.6.",
"F.6.6.o.u p p i u i X.X.o.p p | X.X.X.6.6.9.F Z B Z Z Z j d d d p p o.X.X.X.X.X.@.6.6.6.X.X.+.7.6.6.",
"G.6.<.O.| o.p d u  .X.+.X.u p p X.X.X.9.6.*.G G C V V V h p p p p p  .X.X...+...@.6.*.*.X.X.X.6.6.*.",
"C.i i *.6.6.@.d i O.6.6.6.X.X.X.X.X.X.....X.[ I.{ [ ] ` >.X.X.X.X.X.X.X.X.&.7.6.6.X.....X.X.X.i i d ",
"C.i i @.6.6.@.d i O.6.8.*.X.X.X.X.X...X...O.Y.T.T.} { [ >.X.X.X.......X...#.6.6.*...X.X.X.X. .i s p ",
"C.i i #.6.6.O.p d o.6.6.*.X.X.X.......X...O.R.R.T.T.T.I.;.X.X.X.......X...#.6.7.*...X.X.X.X.X.i i s ",
"S...X. .p i i p p p X.+.X.i p  .6.6.6.X.....R.Q.!.!.!.Q.z.6.8.@.....e.M.M.g.7.6.6...X.X.X.X.X.u i p ",
"S.....i i i i p u | X...X.p u p 6.6.6.X...%.R.!.!.!.!.~.z.6.6.@.+...e.N.N.g.7.7.*...X.X.X.X.X.i i i ",
"S.X... .i u u u i i ......u u | 6.6.6.+...O.R.Q.~.~.~.~.k.7.7.@.X.X.e.N.N.x.6.6.*.X.X.X.X.X.| i i i ",
"S.X.O.f.v.v.s.6.6.&.i i o.6.6.6.6.6.6.6.7.7.R.W.!.!.~.^.k.7.6.@.X.X.X.p o.&.6.7.6...+.X.X...+.6.9.6.",
"S.X...h.N.N.g.6.6.&.p p O.7.6.6.6.6.6.7.6.7.E.Q.~.~.~.~.k.6.6.#.X.X. .p i O.6.6.*.X.......X.+.6.6.8.",
"S.X...x.N.v.g.6.6.*.p p o.6.6.6.6.6.6.7.6.9.Q.~.~.~.^.^.k.6.6.+...X. .u i $.6.6.*.X...O.....+.6.6.6.",
"C.i i 1.w.w.<.o.o.p i p p o.o.o.o.o.O.6.6.7.W.!.~.!.~.~.k.7.6.#.X..... ... .o.o.o.....+.6.6.*.6.8.6.",
"C.d i *.6.6.O.i i i u p u i u i p p p 8.7.7.W.Q.!.~.~.~.k.7.6.#.X...X.X... .p p  .....+.6.6.6.6.8.6.",
"C.i d *.6.6.O.p i i i i p u u u i i p 6.6.7.W.W.W.~.^.~.z.6.6.+.O......... .i u i ....$.6.6.6.6.6.6.",
"G.#.*.O.o.o. .X... . ...O.*.*.*.*.*.*.@.+.&.e e e e w w z +.+...| p | p | p i i  .6.*.6.6.6.6.+.+.@.",
"F.6.6.O.i d o.X.X.X.X.X.@.6.6.6.6.6.8.......% % $ $ * & u X.X.| p p p p p p p p O.6.6.7.7.6.6.....X.",
"F.6.6.O.i i  ...X.X...X.@.6.7.7.6.6.8.......= % $ % & > a ....s d i p p p p p p o.6.6.8.7.6.6.....X.",
"D.O.O.@.@.@.@.X.X.+.#.#.6.6.7.6.6.6.8...X. .= & % & & > h #.*... . .p p p  .&.&.&.o.O.O.7.7.6.......",
"C.i i #.8.8.#...X.@.6.6.6.7.6.6.8.8.8...X...* % % & : : -.6.6.@..... .p u O.6.6.*.u i o.6.8.*.......",
"C.i s &.6.7.#...X.+.6.6.6.6.6.6.6.6.6.+.....% % % & : & =.8.6.+..... .p i $.6.6.#.s s  .6.6.8.....+.",
"C.s s #.6.6.#...X.+.#.#.#.#.#.#.6.6.6.#.&.*.= % % & & & h #.#.+.X... .p p  .$.+.O.s s o.6.7.6.......",
"C.s i &.8.6.#...X.....+.......+.6.7.6.7.6.7.= & % * & : k ......X.X. .u p p p p s s s o.8.7.6.....+.",
"C.i s #.6.6.#.+.X.X.X.........+.6.7.6.6.7.*.* % % % & > k ......X... .p p p p p s s s  .7.8.*.......",
"C.i i *.6.6.*.&.@.*.3.e.<.....O.*.*.*.*.*.*.% % % & & : k | | <.3.q.,.s i  .@.O.#.O.@.@.#.#.#.#.#.#.",
"C.i u &.6.6.6.6.6.r.N.N.l...X...X.X.....O...= & & & : : g i i d.N.N.p.s i O.6.6.7.8.6.*...X.@.8.6.6.",
"C.i p *.6.6.6.6.6.r.n.N.x.....X.X...X.......% & & & & : g i u d.K.v.p.s i O.6.6.6.6.6.6.......7.7.6.",
"C.i p O.*.*.*.*.*.9.d.d.e.+.+.&. . .X. . . .% & & & : & k O.O.e.f.g.3.o.O.@.6.*.6.6.6.*.....+.6.6.6.",
"C.i i u p p  ...X. .p u O.6.6.6.i i i p d u & & : & = : =.6.6.+...X.#.6.8.#...X.+.6.6.*...+.+.6.7.6.",
"C.i p u p u  ...X...u p O.6.6.*.i i u p d d , , ; = = : =.9.6.@.....#.6.8.#.X.X.+.6.6.6...X.+.6.7.6.",
"A.| o.| p o...+.+.O.i p o.6.6.*. .i i o.o.p 1 1 , ; ; ; =.*.6.@. . .+.#.#.#.+.#.#.6.8.8.1.1.<.6.8.6.",
"F.6.8.6.6.6.7.6.6.*.X.X...X.....X.X.X.6.6.8.4 2 < < < 5 a X...i s i i i i @.6.6.6.6.8.w.N.N.c.6.8.7.",
"F.6.6.6.7.6.6.7.6.*.............X...X.7.6.8.4 3 2 5 5 e h X... .s i i i i O.8.8.8.8.6.w.N.N.c.8.8.6.",
"P.h.f.f.h.f.f.h.h.d.p.p.p.p.p.p.p.p.p.d.l.f.L L L P P U i.p.p.u.u.u.u.u.u.p.l.h.f.h.h.b.L.L.K.h.x.h."
};
