/* XPM */
static char *result[] = {
/* columns rows colors chars-per-pixel */
"50 82 204 2 ",
"   c #020202",
".  c #0B0101",
"X  c #020902",
"o  c #0C0805",
"O  c #01020B",
"+  c #000B09",
"@  c #090A0A",
"#  c #120403",
"$  c #160906",
"%  c #190907",
"&  c #010312",
"*  c #020814",
"=  c #01011B",
"-  c #010A1A",
";  c #080112",
":  c #03131E",
">  c #1E1415",
",  c #1A1A17",
"<  c #1E160C",
"1  c #211009",
"2  c #231B19",
"3  c #241917",
"4  c #2B251F",
"5  c #32231D",
"6  c #000123",
"7  c #000B25",
"8  c #0E122B",
"9  c #0D1334",
"0  c #0C1836",
"q  c #0C1238",
"w  c #131635",
"e  c #141835",
"r  c #13163B",
"t  c #141A3C",
"y  c #141621",
"u  c #04273C",
"i  c #1E2326",
"p  c #292523",
"a  c #262726",
"s  c #3B2C29",
"d  c #432D2B",
"f  c #472A26",
"g  c #42312B",
"h  c #49332F",
"j  c #4D3C39",
"k  c #493933",
"l  c #54332C",
"z  c #63483F",
"x  c #75523F",
"c  c #121545",
"v  c #101A40",
"b  c #041A42",
"n  c #032941",
"m  c #052844",
"M  c #09334A",
"N  c #0C3145",
"B  c #053653",
"V  c #093250",
"C  c #03385B",
"Z  c #193F5D",
"A  c #153555",
"S  c #0F3C60",
"D  c #163C63",
"F  c #30386F",
"G  c #353A71",
"H  c #0F475F",
"J  c #0D4051",
"K  c #0D466A",
"L  c #084A67",
"P  c #114665",
"I  c #3B427E",
"U  c #5B4542",
"Y  c #5B4843",
"T  c #554747",
"R  c #4C474D",
"E  c #664D43",
"W  c #615048",
"Q  c #765444",
"!  c #7B5444",
"~  c #775748",
"^  c #79554A",
"/  c #76584A",
"(  c #7C584E",
")  c #735852",
"_  c #725E58",
"`  c #7A5E58",
"'  c #815F53",
"]  c #86665A",
"[  c #886354",
"{  c #956A5A",
"}  c #987568",
"|  c #8E7D7D",
" . c #A57A6A",
".. c #A97E6E",
"X. c #A37F72",
"o. c #A27E7E",
"O. c #9D8275",
"+. c #9E817A",
"@. c #A78779",
"#. c #AA8371",
"$. c #393F87",
"%. c #37408A",
"&. c #3D458C",
"*. c #3C4A8C",
"=. c #3B4286",
"-. c #245E8E",
";. c #3D4596",
":. c #20629F",
">. c #3E53AF",
",. c #3E52B4",
"<. c #3C52B9",
"1. c #404185",
"2. c #424695",
"3. c #4A569B",
"4. c #4654A3",
"5. c #4451AD",
"6. c #4A55AA",
"7. c #404FB7",
"8. c #414FBC",
"9. c #4151B3",
"0. c #4A53B4",
"q. c #4150B9",
"w. c #4A52BB",
"e. c #404FC0",
"r. c #3882BB",
"t. c #2292BF",
"y. c #0E95C8",
"u. c #1591CC",
"i. c #1790CA",
"p. c #1691D0",
"a. c #188BC0",
"s. c #2494DF",
"d. c #3694DA",
"f. c #318CD2",
"g. c #1E93ED",
"h. c #1C98FC",
"j. c #2B98E9",
"k. c #3590E8",
"l. c #0DA9ED",
"z. c #0BAAE9",
"x. c #12A5EC",
"c. c #11A9EB",
"v. c #17A5E4",
"b. c #06A7F6",
"n. c #0AA7F4",
"m. c #03AAF4",
"M. c #06A6FC",
"N. c #02A9FB",
"B. c #0AA7F6",
"V. c #11A6F2",
"C. c #4096D3",
"Z. c #448EE0",
"A. c #958783",
"S. c #A58C80",
"D. c #BA9489",
"F. c #B89081",
"G. c #B4958E",
"H. c #BBA599",
"J. c #BFA5A1",
"K. c #C69A8B",
"L. c #C8988C",
"P. c #C59B87",
"I. c #C4A49A",
"U. c #DCAF9F",
"Y. c #D7B09F",
"T. c #DCB2A2",
"R. c #DBB7AD",
"E. c #DAB8AC",
"W. c #D6B6A6",
"Q. c #D5B9B2",
"!. c #D9B8B2",
"~. c #C7ADA1",
"^. c #E2B9AB",
"/. c #E1B2B5",
"(. c #EBC6BA",
"). c #EEC8BD",
"_. c #EACAB7",
"`. c #FECBB5",
"'. c #F6CDBC",
"]. c #FDCCBB",
"[. c #F5C7B7",
"{. c #EFD2BF",
"}. c #FBD2BD",
"|. c #F1D1BF",
" X c #F3C6AF",
".X c #B7B7C4",
"XX c #CEC9DC",
"oX c #D2D2D1",
"OX c #D7CAD7",
"+X c #ECCBC2",
"@X c #EECFCA",
"#X c #F4CCC2",
"$X c #FCCCC3",
"%X c #FBCEC8",
"&X c #FDC5C0",
"*X c #ECD4C9",
"=X c #F6D5C3",
"-X c #FBD3C2",
";X c #F5D7C8",
":X c #FBD1CB",
">X c #F2DCCA",
",X c #F6D2D2",
"<X c #D1CFE8",
"1X c None",
/* pixels */
"1X1X1X1X1X1X1X1X1X1X1X1X1X1X1X1X1X1X1X1X1X1X1X1X1X1X1X1X1X1X1X1X1X1X1X1X1X1X1X1X1X1X1X1X1X1X1X1X1X1X",
"1X1X1X1X1X1X1X1X1X1X1X1X1X1X1X1X1X1X1X1X1X1X1X1X1X1X1X1X1X1X1X1X1X1X1X1X1X1X1X1X1X1X1X1X1X1X1X1X1X1X",
"1X1X1X1X1X1X1X1X1X1X1X1X1X1X1X1X1X1X1X1X1X1X1X1X1X1X1X1X1X1X1X1X1X1X1X1X1X1X1X1X1X1X1X1X1X1X1X1X1X1X",
"1X1X1X1X1X1X1X1X1X1X1X1X1X1X1X1X1X1X1X1X1X1X1X1X1X1X1X1X1X1X1X1X1X1X1X1X1X1X1X1X1X1X1X1X1X1X1X1X1X1X",
"1X1X1X1X1X1X1X1X1X1X1X1X1X1X1X1X1X1X1X1X1X1X1X1X1X1X1X1X1X1X1X1X1X1X1X1X1X1X1X1X1X1X1X1X1X1X1X1X1X1X",
"1X1X1X1X1X1X1X1X1X1X1X1X1X1X1X1X1X1X1X1X1X1X1X1X1X1X1X1X1X1X1X1X1X1X1X1X1X1X1X1X1X1X1X1X1X1X1X1X1X1X",
"1X1X1X1X1X1X1X1X1X1X1X@   @ @   X +   X   +   X   X X   + X   @ @     @ +   @ 1X1X1X1X1X1X1X1X1X1X1X",
"1X1X1X1X1X1X1X1X1X1X1X                                                        1X1X1X1X1X1X1X1X1X1X1X",
"1X1X1X1X1X1X1X1X1X1X1X                                                        1X1X1X1X1X1X1X1X1X1X1X",
"1X1X1X1X1X1X1X1X1X1X1X  @   o . # # # # # # # # # # # # # # # # # $ # $       1X1X1X1X1X1X1X1X1X1X1X",
"1X1X1X1X1X1X1X1X1X1X1X      , ) ) ) ) ) ) / ) / ) / / ) ) ) ) ) ) ) ) W .     1X1X1X1X1X1X1X1X1X1X1X",
"1X1X1X1X1X1X1X1X1X1X1X    @ , / Q ~ Q ^ ^ ^ ^ ~ / / ~ ^ ~ / ^ / / / / E .   O 1X1X1X1X1X1X1X1X1X1X1X",
"1X1X1X1X1X1X1X1X1X1X1X      2 ~ Q ! Q Q x Q x Q x x x x x x x ^ ! ! ! E .     1X1X1X1X1X1X1X1X1X1X1X",
"1X1X1X1X1X1X1X1X1X1X1X      2 / Q ^ ..L.L.K.L.L.L.L.L.L.K.P.P.P.{ ! ! E .     1X1X1X1X1X1X1X1X1X1X1X",
"1X1X1X1X1X1X1X1X1X1X1X      2 / ^ ! T.].].].].&X].$X'.`.].].].]. .! ^ E .     1X1X1X1X1X1X1X1X1X1X1X",
"1X1X1X1X1X1X1X1X1X1X1X      2 / Q ! T.].].].].].].].].`.`.`.].}. .! ( E .     1X1X1X1X1X1X1X1X1X1X1X",
"1X1X1X1X1X1X1X1X1X1X1X      3 ~ ! ' U.}.].].`.].].].`.].].`.].}. .! ^ E .     1X1X1X1X1X1X1X1X1X1X1X",
"1X1X1X1X1X1X1X1X1X1X1X    . 3 ^ x x Y.`.].`.`.].].].].`.].].].]. .! ^ E .   + 1X1X1X1X1X1X1X1X1X1X1X",
"1X1X1X1X1X1X1X1X1X1X1X      3 ^ ' ! U.'.].].].`.].`.].].].].].'...! ( E .     1X1X1X1X1X1X1X1X1X1X1X",
"1X1X1X1X1X1X1X1X1X1X1X      3 ^ x ! U.'.=X-X$X].].].].].}.}.#X-X .! ! E .     1X1X1X1X1X1X1X1X1X1X1X",
"1X1X1X1X1X1X1X1X1X1X1X      s D.F.G.} [ ] } -X].].`.].$X^.' ] [ #.F.D.+..     1X1X1X1X1X1X1X1X1X1X1X",
"1X1X1X1X1X1X1X1X1X1X1X    . j -X].#Xh   . d -X-X].].`.].I..     S.-X].!.#     1X1X1X1X1X1X1X1X1X1X1X",
"1X1X1X1X1X1X1X1X1X1X1X      j %X[.-Xh .   d =X$X].`.`.'.~.#   . S.}.].Q..     1X1X1X1X1X1X1X1X1X1X1X",
"1X1X1X1X1X1X1X1X1X1X1X    . j #X$X-Xl % # g *X+X#X#X+X+XH.$ # # @.].'.E..     1X1X1X1X1X1X1X1X1X1X1X",
"1X1X1X1X1X1X1X1X1X1X1X    . j -X$X].[.(.+XH.$ $ $ $ $ $ h (.(.+X%X`.$XE..     1X1X1X1X1X1X1X1X1X1X1X",
"1X1X1X1X1X1X1X1X1X1X1X      j -X`.].`.].#XI..       O . d #X%X%X$X`.].Q..     1X1X1X1X1X1X1X1X1X1X1X",
"1X1X1X1X1X1X1X1X1X1X1X      j -X].].].].[.I.#         . f %X$X].`.].].Q..     1X1X1X1X1X1X1X1X1X1X1X",
"1X1X1X1X1X1X1X1X1X1X1X      j ].$X%X].].`.T.` _ _ _ _ ` } ].$X].`.`.].Q.      1X1X1X1X1X1X1X1X1X1X1X",
"1X1X1X1X1X1X1X1X1X1X1X      j }.].%X&X].`.`.&X$X].-X].].'.].].].].`.].Q.    O 1X1X1X1X1X1X1X1X1X1X1X",
"1X1X1X1X1X1X1X1X1X1X1X  #   j ].].].].].].].].].].`.].].].].`.`.'.%X]./.; ; . 1X1X1X1X1X1X1X1X1X1X1X",
"1X1X1X1X1X1X1X1X1X1X1X@ .   k +X+X).).).).).).).).).).+X).).[. X).)._.W.X X X 1X1X1X1X1X1X1X1X1X1X1X",
"1X1X1X1X    @               @ > > > > > 3 > > > > > > > > > > > , > < 1       o             1X1X1X1X",
"1X1X1X1X      O o   o       o                 @       @   o     + O   . . . O   o     O O @ 1X1X1X1X",
"1X1X1X1X      & O O O               @ X       X           O       O O o .   O O O @ O       1X1X1X1X",
"1X1X1X1X      8 Z S Z *     8 P K K K K K K K K K K K K K K K H P L L J   o & m D D A +   . 1X1X1X1X",
"1X1X1X1X    O A C.k.d.0     M v.V.x.V.x.V.V.V.l.V.V.x.V.c.V.x.z.v.z.x.a.- O ; -.f.d.r.7 . . 1X1X1X1X",
"1X1X1X1X      S j.h.j.b   O B l.m.m.m.m.m.N.m.m.m.m.m.m.m.m.m.m.B.N.M.i.*   O :.g.h.f.0 .   1X1X1X1X",
"1X1X1X1X    O A d.k.Z.0 .   C l.m.m.m.N.m.m.m.m.m.m.m.m.m.m.m.m.N.N.m.u.&     -.d.j.:.7 . . 1X1X1X1X",
"1X1X1X1X      T oXXX<Xa .   M z.m.m.m.m.m.m.m.m.m.m.N.m.m.m.m.m.m.N.m.u.&     | OXXX.Xo   o 1X1X1X1X",
"1X1X1X1X      Y }.`.%Xa   O M x.m.m.N.m.m.m.m.N.m.m.m.m.m.m.m.m.b.N.m.u.O     #.].[.Q.o X   1X1X1X1X",
"1X1X1X1X      R *X`.:Xa O * M V.m.m.b.m.m.m.m.m.m.m.m.N.m.m.m.m.b.m.m.u.*     A.+X$X!.@ O O 1X1X1X1X",
"1X1X1X1X    @ R ;X`.$X5     M c.m.m.N.m.m.m.N.m.m.m.m.m.m.m.m.m.b.N.m.u.O O   o.].`.R.. O O 1X1X1X1X",
"1X1X1X1X      z -X`.$X5 . O B l.N.m.m.m.m.m.m.N.m.m.m.m.m.m.m.m.m.N.m.p.&   o } `.`.W.%   . 1X1X1X1X",
"1X1X1X1X      U -X$X:Xp   O C V.m.m.m.m.m.m.m.m.m.m.m.m.m.m.m.m.B.m.m.p.&     O.{.'.Q.# @ O 1X1X1X1X",
"1X1X1X1X    . T ;X].:Xp   @ N c.m.m.m.m.b.m.m.b.m.m.m.m.m.m.m.m.b.N.m.p.O O   X.'.%XR.# X   1X1X1X1X",
"1X1X1X1X      U =X].:Xp   X M c.m.m.m.m.b.b.m.l.z.m.m.m.m.m.m.m.m.B.m.u.* O   o.#X].R.#     1X1X1X1X",
"1X1X1X1X      U =X`.%X4     B z.m.m.m.m.m.m.N.m.m.m.m.m.m.m.m.m.b.M.n.i.+     X.#X].E.#   O 1X1X1X1X",
"1X1X1X1X      U }.`.:X4   O B c.z.m.z.m.m.m.m.m.m.m.m.m.z.m.m.N.M.M.b.p.O . # @.'.].Q.o   X 1X1X1X1X",
"1X1X1X1X      U }.`.:Xp   O M n.m.N.b.N.N.N.b.N.N.N.N.N.m.b.N.m.m.m.m.y.* O . O.'.`.E.#   O 1X1X1X1X",
"1X1X1X1X    . U -X`.:Xp   O V x.n.m.b.b.b.b.m.b.b.b.b.b.b.m.b.l.V.z.z.y.+     X.].].E.#     1X1X1X1X",
"1X1X1X1X      Y *X].:Xa   O M x.m.m.m.m.m.m.z.m.m.m.m.m.m.m.m.N.N.M.b.i.O O o +.#X$XE.#     1X1X1X1X",
"1X1X1X1X  @   T >X$X,Xa   . N v.x.v.c.x.x.g.z.c.v.v.x.x.x.x.z.z.l.x.c.a.* & O A.*X+XQ.o X   1X1X1X1X",
"1X1X1X1X      1 g f g @     - n n n n n n n n u u n m n n n n u u n m m o     2 d f s       1X1X1X1X",
"1X1X1X1X          .         O   & O     & & O   O O O O             O O     O               1X1X1X1X",
"1X1X1X1X  o       O O       +         X                   O & O     &           @         @ 1X1X1X1X",
"1X1X1X1X                    * e c c r v c 8             * r c r r r c w           o     @   1X1X1X1X",
"1X1X1X1X1X1X1X1X1X1X1X@     e 4.w.w.0.w.0.1.=         O 8 3.5.5.6.6.0.2.=   ; 1X1X1X1X1X1X1X1X1X1X1X",
"1X1X1X1X1X1X1X1X1X1X1X    O e 4.<.8.7.<.7.I &           q 3.8.8.7.<.8.2.=     1X1X1X1X1X1X1X1X1X1X1X",
"1X1X1X1X1X1X1X1X1X1X1X    O e 5.,.,.,.<.9.I O           q 4.<.<.,.,.7.*.&     1X1X1X1X1X1X1X1X1X1X1X",
"1X1X1X1X1X1X1X1X1X1X1X    & e 5.q.,.,.<.8.$.&         O 9 4.8.<.>.>.>.*.O     1X1X1X1X1X1X1X1X1X1X1X",
"1X1X1X1X1X1X1X1X1X1X1X    & r 5.9.9.>.,.<.$.&           w 4.7.8.<.,.9.;.*   O 1X1X1X1X1X1X1X1X1X1X1X",
"1X1X1X1X1X1X1X1X1X1X1X    O e 9.9.9.9.,.7.$.O       O   8 5.,.7.,.<.,.;.O     1X1X1X1X1X1X1X1X1X1X1X",
"1X1X1X1X1X1X1X1X1X1X1X    O e 9.5.<.,.,.q.$.O           8 6.,.9.,.<.,.2.O O   1X1X1X1X1X1X1X1X1X1X1X",
"1X1X1X1X1X1X1X1X1X1X1X    O e 5.9.q.,.,.q.%.O       O   8 9.,.9.<.<.,.;.      1X1X1X1X1X1X1X1X1X1X1X",
"1X1X1X1X1X1X1X1X1X1X1X    O e ,.,.q.,.,.q.%.O           8 5.,.7.<.<.,.;.O     1X1X1X1X1X1X1X1X1X1X1X",
"1X1X1X1X1X1X1X1X1X1X1X    O e 5.>.9.,.,.q.%.O       O   8 7.9.7.,.<.,.2.  O   1X1X1X1X1X1X1X1X1X1X1X",
"1X1X1X1X1X1X1X1X1X1X1X    O w 9.,.7.,.,.q.$.O           8 5.,.7.,.<.<.;.O     1X1X1X1X1X1X1X1X1X1X1X",
"1X1X1X1X1X1X1X1X1X1X1X    O w >.5.,.,.>.<.$.O       O   8 5.,.9.<.<.9.2.O     1X1X1X1X1X1X1X1X1X1X1X",
"1X1X1X1X1X1X1X1X1X1X1X    O e 5.>.7.7.5.5.$.&       O   8 5.7.5.,.,.>.;.O O   1X1X1X1X1X1X1X1X1X1X1X",
"1X1X1X1X1X1X1X1X1X1X1X      y =.;.;.;.;.=.F 6         O w I &.;.;.;.$.G = O O 1X1X1X1X1X1X1X1X1X1X1X",
"1X1X1X1X1X1X1X1X1X1X1X        O O & & O   X             O = 6 & & & O O     o 1X1X1X1X1X1X1X1X1X1X1X",
"1X1X1X1X1X1X1X1X1X1X1X            O O O O                                     1X1X1X1X1X1X1X1X1X1X1X",
"1X1X1X1X1X1X1X1X1X1X1X                O                               O O O O 1X1X1X1X1X1X1X1X1X1X1X",
"1X1X1X1X1X1X1X1X1X1X1X                                                        1X1X1X1X1X1X1X1X1X1X1X",
"1X1X1X1X1X1X1X1X1X1X1X                    O             O                     1X1X1X1X1X1X1X1X1X1X1X",
"1X1X1X1X1X1X1X1X1X1X1X        o   o           O           O   O @ O   .   @   1X1X1X1X1X1X1X1X1X1X1X",
"1X1X1X1X1X1X1X1X1X1X1X                                                        1X1X1X1X1X1X1X1X1X1X1X",
"1X1X1X1X1X1X1X1X1X1X1X1X1X1X1X1X1X1X1X1X1X1X1X1X1X1X1X1X1X1X1X1X1X1X1X1X1X1X1X1X1X1X1X1X1X1X1X1X1X1X",
"1X1X1X1X1X1X1X1X1X1X1X1X1X1X1X1X1X1X1X1X1X1X1X1X1X1X1X1X1X1X1X1X1X1X1X1X1X1X1X1X1X1X1X1X1X1X1X1X1X1X",
"1X1X1X1X1X1X1X1X1X1X1X1X1X1X1X1X1X1X1X1X1X1X1X1X1X1X1X1X1X1X1X1X1X1X1X1X1X1X1X1X1X1X1X1X1X1X1X1X1X1X",
"1X1X1X1X1X1X1X1X1X1X1X1X1X1X1X1X1X1X1X1X1X1X1X1X1X1X1X1X1X1X1X1X1X1X1X1X1X1X1X1X1X1X1X1X1X1X1X1X1X1X",
"1X1X1X1X1X1X1X1X1X1X1X1X1X1X1X1X1X1X1X1X1X1X1X1X1X1X1X1X1X1X1X1X1X1X1X1X1X1X1X1X1X1X1X1X1X1X1X1X1X1X"
};
