/* XPM */
static char *steve2[] = {
/* columns rows colors chars-per-pixel */
"30 50 157 2 ",
"   c #030203",
".  c #0A0303",
"X  c #0C0806",
"o  c #03040B",
"O  c #080709",
"+  c #0B0A0B",
"@  c #100604",
"#  c #120C0C",
"$  c #1A0F0E",
"%  c #0E100F",
"&  c #15100F",
"*  c #19100E",
"=  c #040C15",
"-  c #090912",
";  c #030E1A",
":  c #090C1D",
">  c #05151E",
",  c #161110",
"<  c #1E1312",
"1  c #231816",
"2  c #2A211E",
"3  c #020F20",
"4  c #0C0E24",
"5  c #0C0F28",
"6  c #051422",
"7  c #091622",
"8  c #071924",
"9  c #061F33",
"0  c #171939",
"q  c #08222D",
"w  c #052133",
"e  c #042238",
"r  c #2F2523",
"t  c #312422",
"y  c #3B2C27",
"u  c #3E3330",
"i  c #422F29",
"p  c #473F3F",
"a  c #4E3935",
"s  c #51433F",
"d  c #18284C",
"f  c #15314F",
"g  c #153B5E",
"h  c #262B5D",
"j  c #24265A",
"k  c #292F67",
"l  c #2B3266",
"z  c #2A316E",
"x  c #2E387A",
"c  c #2D377B",
"v  c #303A77",
"b  c #303978",
"n  c #0D4664",
"m  c #144165",
"M  c #1D4F7B",
"N  c #0D5A7E",
"B  c #4F494C",
"V  c #584541",
"C  c #5F514B",
"Z  c #545155",
"A  c #634D47",
"S  c #6B4F47",
"D  c #634D49",
"F  c #6B4F48",
"G  c #6C5044",
"H  c #6A524B",
"J  c #67534D",
"K  c #765647",
"L  c #795546",
"P  c #775648",
"I  c #7B5649",
"U  c #7C5949",
"Y  c #655653",
"T  c #695550",
"R  c #765951",
"E  c #766059",
"W  c #796560",
"Q  c #886254",
"!  c #8C6857",
"~  c #8F6758",
"^  c #8D695C",
"/  c #83665C",
"(  c #846F6B",
")  c #8D6F64",
"_  c #84706B",
"`  c #8D7771",
"'  c #967F75",
"]  c #A37868",
"[  c #9C827B",
"{  c #A48071",
"}  c #AE8473",
"|  c #A1847D",
" . c #A88679",
".. c #0D5981",
"X. c #235885",
"o. c #3F4A9D",
"O. c #3C4392",
"+. c #3D49A4",
"@. c #3F49A8",
"#. c #3E52B5",
"$. c #3D51B9",
"%. c #0F7DBB",
"&. c #2267A6",
"*. c #2A74B2",
"=. c #4152AE",
"-. c #4151B2",
";. c #4050BA",
":. c #0E81B7",
">. c #0C83BA",
",. c #1186BC",
"<. c #0F86C2",
"1. c #2895EC",
"2. c #0DA6EF",
"3. c #0AA9EE",
"4. c #07A7F7",
"5. c #03AAF5",
"6. c #0AA9F2",
"7. c #05A7F8",
"8. c #03A9F9",
"9. c #0CA7F1",
"0. c #868999",
"q. c #A78C87",
"w. c #AA8B84",
"e. c #A68C88",
"r. c #B08C81",
"t. c #BA9284",
"y. c #B8978B",
"u. c #B6988F",
"i. c #B9988E",
"p. c #B59992",
"a. c #BCA098",
"s. c #C59C91",
"d. c #C3A297",
"f. c #D4A697",
"g. c #DFB29F",
"h. c #D5AFA3",
"j. c #DFB1A2",
"k. c #DEB7AB",
"l. c #DEB8AC",
"z. c #D5B2A4",
"x. c #DFBCB1",
"c. c #E1AFA3",
"v. c #E1B2A2",
"b. c #E8BCAD",
"n. c #E8BFB0",
"m. c #EEC2AE",
"M. c #ECC1B0",
"N. c #F2C4B5",
"B. c #FECBB7",
"V. c #F6CBBD",
"C. c #FCCDBB",
"Z. c #FBD0BF",
"A. c #BFC3D3",
"S. c #C0C1D3",
"D. c #F7CCC4",
"F. c #FBCDC1",
"G. c None",
/* pixels */
"G.G.G.G.G.G.G.G.G.G.G.G.G.G.G.G.G.G.G.G.G.G.G.G.G.G.G.G.G.G.",
"G.G.G.G.G.G.G.G.G.G.G.G.G.G.G.G.G.G.G.G.G.G.G.G.G.G.G.G.G.G.",
"G.G.G.G.G.G.G.G.G.G.G.G.G.G.G.G.G.G.G.G.G.G.G.G.G.G.G.G.G.G.",
"G.G.G.G.G.G.G.G.G.G.G.G.G.G.G.G.G.G.G.G.G.G.G.G.G.G.G.G.G.G.",
"G.G.G.G.G.G.G.                                G.G.G.G.G.G.G.",
"G.G.G.G.G.G.G.      . . . . . . . . . . . .   G.G.G.G.G.G.G.",
"G.G.G.G.G.G.G.  , F S F G S G G G G H H G y   G.G.G.G.G.G.G.",
"G.G.G.G.G.G.G.  , L L U U U U U U U U U L i   G.G.G.G.G.G.G.",
"G.G.G.G.G.G.G.  & P Q f.v.c.c.c.v.v.v.] L i   G.G.G.G.G.G.G.",
"G.G.G.G.G.G.G.  & P ~ N.C.C.B.C.B.B.C.} L i   G.G.G.G.G.G.G.",
"G.G.G.G.G.G.G.  * L ~ m.C.B.C.B.B.C.C.} I i   G.G.G.G.G.G.G.",
"G.G.G.G.G.G.G.  , P ! m.F.C.C.C.C.C.C.} L i   G.G.G.G.G.G.G.",
"G.G.G.G.G.G.G.  1 t. .) ) m.C.C.V. ./ { t.F   G.G.G.G.G.G.G.",
"G.G.G.G.G.G.G.  t F.h.1 < z.C.B.N.s . ' C._   G.G.G.G.G.G.G.",
"G.G.G.G.G.G.G.  t D.b.R J ' | | e.R A i.C.)   G.G.G.G.G.G.G.",
"G.G.G.G.G.G.G.  t F.C.C.x.t   . # r.D.C.C._   G.G.G.G.G.G.G.",
"G.G.G.G.G.G.G.  t F.F.C.b.A u u a s.F.B.C._   G.G.G.G.G.G.G.",
"G.G.G.G.G.G.G.. t C.F.C.B.N.N.N.N.B.B.V.C.(   G.G.G.G.G.G.G.",
"G.G.G.G.G.G.G.. 2 x.l.l.l.l.l.l.l.b.v.k.l.W   G.G.G.G.G.G.G.",
"G.G.              # # # # # & + - # # % # @         o   G.G.",
"G.G.    ; 6 =   o 7 > 8 > > > > > 6 > > 6 % o = 7 ;   . G.G.",
"G.G.    f *.M o 8 ,.,.<.<.<.<.<.<.<.,.,.<.n o f *.X.o . G.G.",
"G.G.    g 1.&.o e 6.5.5.5.5.5.5.5.5.5.5.8...  g 1.&.-   G.G.",
"G.G.    Z S.0.X w 3.5.5.5.5.5.5.5.5.5.5.5...  B S.0.O . G.G.",
"G.G.    Y V.e.+ w 9.5.5.5.5.5.5.5.5.5.5.5...o D F.p.o o G.G.",
"G.G.    Y C. .+ w 3.5.5.5.8.5.5.5.5.5.7.5...o V C.y..   G.G.",
"G.G.    T F.q.+ e 3.5.5.5.5.5.5.5.5.5.5.5...  C V.u.O   G.G.",
"G.G.    T F.q.+ q 3.5.5.5.5.3.5.5.5.5.5.7...o D Z.i..   G.G.",
"G.G.    T B.w.+ w 3.5.5.5.5.5.5.5.5.5.5.7.N   D V.u.  o G.G.",
"G.G.    T Z.q.+ 9 3.5.5.8.7.5.7.5.5.5.5.5.N   F Z.i..   G.G.",
"G.G.    T F.q.+ w 2.5.7.5.5.5.5.7.5.7.6.6.N   C C.i..   G.G.",
"G.G.  O V d.W O 6 :.:.>.%.:.:.:.>.>.>.>.>.n o s a.`     G.G.",
"G.G.    + * +     > = = 3 = = 3 ; ; = = > =   o * #     G.G.",
"G.G.      o     o ; 4 - : o       ; 4 : 4 o           O G.G.",
"G.G.G.G.G.G.G.  : o.=.=.O.4     o l +.o.+.j o G.G.G.G.G.G.G.",
"G.G.G.G.G.G.G.  7 =.-.;.o.4     o b $.#.$.h   G.G.G.G.G.G.G.",
"G.G.G.G.G.G.G.  5 =.#.#.+.4     o x $.#.#.h   G.G.G.G.G.G.G.",
"G.G.G.G.G.G.G.  4 =.#.#.+.4     o b #.#.#.k   G.G.G.G.G.G.G.",
"G.G.G.G.G.G.G.  4 -.#.#.+.4     o x #.#.#.h o G.G.G.G.G.G.G.",
"G.G.G.G.G.G.G.  4 -.#.#.+.4     o c #.#.#.h   G.G.G.G.G.G.G.",
"G.G.G.G.G.G.G.  4 -.#.#.+.4     o c ;.#.#.j   G.G.G.G.G.G.G.",
"G.G.G.G.G.G.G.  4 =.#.#.+.4     o x =.#.#.k   G.G.G.G.G.G.G.",
"G.G.G.G.G.G.G.  + l z z j :     o d z z k 0 o G.G.G.G.G.G.G.",
"G.G.G.G.G.G.G.      o o           o o         G.G.G.G.G.G.G.",
"G.G.G.G.G.G.G.                            o   G.G.G.G.G.G.G.",
"G.G.G.G.G.G.G.                                G.G.G.G.G.G.G.",
"G.G.G.G.G.G.G.                                G.G.G.G.G.G.G.",
"G.G.G.G.G.G.G.G.G.G.G.G.G.G.G.G.G.G.G.G.G.G.G.G.G.G.G.G.G.G.",
"G.G.G.G.G.G.G.G.G.G.G.G.G.G.G.G.G.G.G.G.G.G.G.G.G.G.G.G.G.G.",
"G.G.G.G.G.G.G.G.G.G.G.G.G.G.G.G.G.G.G.G.G.G.G.G.G.G.G.G.G.G."
};
