/* XPM */
static char *stone2[] = {
/* columns rows colors chars-per-pixel */
"50 50 206 2 ",
"   c #4C4E4B",
".  c #515350",
"X  c #525252",
"o  c #535353",
"O  c #545454",
"+  c #555555",
"@  c #565656",
"#  c #575757",
"$  c #585858",
"%  c #595B58",
"&  c #5A5A5A",
"*  c #5B5B5B",
"=  c #595C58",
"-  c #5A5C59",
";  c #5B5D5B",
":  c #5C5C5C",
">  c #5D5D5D",
",  c #5E5E5E",
"<  c #5F5E5E",
"1  c #5F5F5F",
"2  c #61625F",
"3  c #606060",
"4  c #616161",
"5  c #626162",
"6  c #626262",
"7  c #636262",
"8  c #636263",
"9  c #636363",
"0  c #646363",
"q  c #626460",
"w  c #646464",
"e  c #656464",
"r  c #656565",
"t  c #666565",
"y  c #666666",
"u  c #676666",
"i  c #676667",
"p  c #676767",
"a  c #686767",
"s  c #686768",
"d  c #686868",
"f  c #696868",
"g  c #696969",
"h  c #6A6969",
"j  c #6A696A",
"k  c #6A6A6A",
"l  c #6B6A6A",
"z  c #6B6A6B",
"x  c #6B6B6B",
"c  c #6C6B6B",
"v  c #6A6C6A",
"b  c #6C6B6C",
"n  c #6C6C6C",
"m  c #6D6C6C",
"M  c #6D6C6D",
"N  c #6D6D6D",
"B  c #6E6D6D",
"V  c #6E6E6E",
"C  c #6F6E6E",
"Z  c #6F6E6F",
"A  c #6F6F6F",
"S  c #706F6F",
"D  c #707070",
"F  c #717070",
"G  c #717071",
"H  c #717171",
"J  c #727171",
"K  c #727172",
"L  c #727272",
"P  c #737272",
"I  c #737273",
"U  c #737373",
"Y  c #747373",
"T  c #747374",
"R  c #747474",
"E  c #757474",
"W  c #757475",
"Q  c #757575",
"!  c #767575",
"~  c #767576",
"^  c #767676",
"/  c #777676",
"(  c #777677",
")  c #777777",
"_  c #787777",
"`  c #787778",
"'  c #797878",
"]  c #797879",
"[  c #797979",
"{  c #7A7979",
"}  c #7A797A",
"|  c #7A7A7A",
" . c #7B7A7A",
".. c #7B7A7B",
"X. c #7C7B7B",
"o. c #7C7B7C",
"O. c #7C7C7C",
"+. c #7D7C7C",
"@. c #7D7C7D",
"#. c #7D7D7D",
"$. c #7E7D7D",
"%. c #7E7D7E",
"&. c #7E7E7E",
"*. c #7F7E7F",
"=. c #7F7F7F",
"-. c #807F7F",
";. c #807F80",
":. c #808080",
">. c #818080",
",. c #818081",
"<. c #818181",
"1. c #828181",
"2. c #828182",
"3. c #828282",
"4. c #838282",
"5. c #838283",
"6. c #838383",
"7. c #848383",
"8. c #848384",
"9. c #848484",
"0. c #858485",
"q. c #858585",
"w. c #868586",
"e. c #878686",
"r. c #878687",
"t. c #878787",
"y. c #878887",
"u. c #888788",
"i. c #888888",
"p. c #898889",
"a. c #8A8989",
"s. c #8A898A",
"d. c #8A8A8A",
"f. c #8B8A8B",
"g. c #8B8B8B",
"h. c #8C8B8C",
"j. c #8C8C8C",
"k. c #8D8C8D",
"l. c #8E8D8E",
"z. c #8E8E8E",
"x. c #8F8E8E",
"c. c #8F8E8F",
"v. c #8F8F8F",
"b. c #908F90",
"n. c #919091",
"m. c #919191",
"M. c #939293",
"N. c #939393",
"B. c #919490",
"V. c #949394",
"C. c #949494",
"Z. c #959495",
"A. c #959595",
"S. c #969795",
"D. c #969596",
"F. c #969696",
"G. c #979696",
"H. c #979697",
"J. c #969895",
"K. c #969995",
"L. c #979996",
"P. c #989798",
"I. c #999899",
"U. c #999999",
"Y. c #9A9A9A",
"T. c #9B9A9B",
"R. c #9B9B9B",
"E. c #9A9C99",
"W. c #9C9C9C",
"Q. c #9D9C9C",
"!. c #9D9C9D",
"~. c #9D9D9D",
"^. c #9E9D9E",
"/. c #9E9E9E",
"(. c #9F9E9F",
"). c #9F9F9F",
"_. c #A0A0A0",
"`. c #A1A1A1",
"'. c #A2A1A2",
"]. c #A2A2A2",
"[. c #A3A3A3",
"{. c #A2A4A1",
"}. c #A3A5A2",
"|. c #A4A4A4",
" X c #A5A4A5",
".X c #A5A5A5",
"XX c #A6A5A6",
"oX c #A6A6A6",
"OX c #A7A7A7",
"+X c #A8A7A8",
"@X c #A8A8A8",
"#X c #A9A9A9",
"$X c #AAA9AA",
"%X c #AAAAAA",
"&X c #ABABAB",
"*X c #ACACAC",
"=X c #ADADAD",
"-X c #AEADAE",
";X c #AEAEAE",
":X c #AFAFAF",
">X c #B0B0B0",
",X c #B1B1B1",
"<X c #B2B2B2",
"1X c #B3B3B3",
"2X c #B4B4B4",
"3X c gray71",
/* pixels */
"*.u.u.u.u.u.I B B : O X $ 4 4 M r.r.M.3X3X3Xr.u.u.I B B 9 4 4 Z.3X3X`.u.u.u.u.u.8.B B m 4 4 4 z B B ",
"*.u.u.u.u.u.Y B B , X X $ 4 4 D r.r.M.3X3X3Xu.u.r.B B B u 4 4 Z.3X3X`.u.u.u.u.u.8.B B m 4 4 4 m B B ",
"t.n.n.2.;.;._ ! ! 9 # # 9 B B U *.*.r.U.W.U.| *.*.u u w I ! ! R.:X:XoXP.R.b.*.*.o.` ` ! 4 4 4 T ` ` ",
"R.oXoXY B B 2.u.r.G 4 4 U r.r.*.B B b 9 4 4 4 4 4 O X X k.oXoXoXoXoX*X3X2X!.m B I u.u.t.4 4 4 2.u.u.",
"R.oXoXY B B 2.t.r.G 4 4 ! r.r.*.B B g 4 4 4 4 4 4 + X X v.oXoXoXoXoX*X3X3X!.B B S u.u.t.3 3 4 5.u.u.",
"!.OXOX_ I I *.2.:.U s s | k.k.t.I U D 9 9 9 s g s @ + + j.`.`.|.oXoX;X3X3X!.I I T ;.2.;.s s s u.k.h.",
"#X3X3Xk.u.u.s 4 4 ] p.r.P.oXoX!.r.p.8.B B B p.u.r.w 4 4 O.p.p.R.oXoX;X3X3XoXu.u.8.4 4 4 u.u.u.`.OXOX",
"#X3X3Xh.u.u.g 4 4 [ r.r.P.oXoX!.r.r.2.B B B r.u.r.w 4 4 O.r.r.R.oXoX;X3X3XoXu.u.5.4 4 0 u.u.u.`.oXoX",
"#X3X3Xh.u.u.g 4 4 [ r.u.P.oXoXU.r.p.2.B B B p.p.p.w 4 4 *.p.r.U.oX`.#X1X1XoXu.u.2.4 4 4 p.p.p.`.OXOX",
"2.p.p.u 9 4 @ O X 8.oXoXoXoXoXoXoXoX!.r.t.t.B B B 4 4 4 4 4 4 : @ X g u.u.r.u.u.2.4 4 u oXoXoX1X3X3X",
"*.u.u.u 4 4 @ X . t.oXoXoXoXoXoXoXoX!.p.r.r.B B B 9 4 4 4 4 4 $ X X g p.u.u.u.u.2.4 4 4 oXoXoX1X3X3X",
"*.r.t.u 4 4 O X X 8.oXoXoXoXoXoXoXoX`.p.r.r.B B B 9 4 4 4 4 4 $ X O g p.u.u.u.u.8.4 4 u oXoXoX1X3X3X",
"9 g g $ @ @ , , , [ l.k.U.oXoX&X1X1X;X`.`.`.4 w 4 *.2.2.I b b 4 , , , $ * 1 g g s B b g B B m p.c.c.",
"* 4 4 O X X , 4 4 ` r.r.P.oXoX&X3X3X1XoXoX|.4 4 4 t.r.p.R B B u 4 4 $ O X # 4 4 4 B B B 4 4 4 2.u.u.",
"* 4 4 O X X , 4 4 ] r.r.P.oXoX&X2X2X1XoXoXoX4 4 4 0.r.r.! B B u 4 4 $ X X # 4 4 4 B B B 4 4 4 2.u.u.",
"I [ [ T U U b g g B D D l.>X:X@XR.R.N.2.6.2.j.j.k.r.p.r.B u u s g s u , , 4 g g B *.2.;.z g g m m m ",
"*.u.u.u.p.t.T B B u 4 4 j.3X3XoXt.r.2.B B S oXoXoXp.u.u.b 4 4 g B B d 4 4 u B B I p.t.t.B B B 4 4 4 ",
"*.u.u.p.t.i.T B B u 4 4 h.3X3X@Xt.r.2.B B B oXoXoXh.u.u.b 4 4 g B B d 4 2 u B B S t.r.t.S B B 0 4 4 ",
"y.Z.Z.p.u.u.p.p.p.! s s [ p.p.p.u.u.2.s s g ;X;X;Xh.u.u.[ ! ! S B B g 4 4 M p.p.p.u.u.u.o.[ [ u 4 4 ",
"Z.oXoXp.u.u.!.oXOX6.B B s 4 4 B u.u.*.4 4 9 3X3X3Xh.u.u.r.u.r.] B B g 4 4 I oXoX`.u.u.u.u.u.u.s 4 4 ",
"L.oXoXp.p.u.`.oXoX6.B B u 4 4 B u.u.*.4 4 4 3X3X3Xh.u.u.u.u.u.[ B B g 4 4 I oXoX`.p.t.t.u.u.u.s 4 3 ",
"E.&X&XZ.n.n.R.!.!.t.! ! m 4 4 s ] [ I 4 4 9 oX#X+XP.Z.Z.h.u.u.` g g S ! [ 2.R.R.Z.*.*.*.t.u.u.g u u ",
"}.3X3XOXoXoXk.u.u.u.y.u.T 4 4 : X X @ 4 4 9 u.u.u.;X3X3XV.u.u.U 4 4 *.oXoX!.u.u.t.B B B t.r.u.S B B ",
"}.3X3X@XoXOXk.u.u.u.u.u.T 4 4 , X X O 4 4 4 u.u.u.;X3X3XV.u.r.I 4 4 -.oXoX`.u.t.2.B B B t.t.u.I B B ",
"}.1X2X#XOXOXk.p.u.t.2.2.! s s 4 O @ @ 0 0 w 2.;.2.oX;X;Xl.8.8.S , , *.#X#X`.k.k.p.Y J Y 5.5.5.S z z ",
"L.oXoX1X3X3Xn.p.u.` B B [ u.u.o.4 4 4 B B B 4 4 4 ;.u.u.T B B 1 X X *.1X3X1XoXoX`.t.t.t.S S z 0 4 4 ",
"L.oXoX1X3X3Xn.p.u.` B B ` u.u.o.4 4 0 B B m 4 4 4 2.r.u.T B B 1 X X *.3X3X:XoXoX`.t.t.t.S z m 0 4 4 ",
"L.oXoX1X3X3XZ.p.u.[ B B [ u.u.o.4 4 4 B B B 4 4 4 2.u.u.! B B 1 X X *.3X3X1XoXoX].p.t.t.S S S w 4 4 ",
"; w 9 ;X3X3X#XoXoXn.r.r.` 0 4 u B B S t.t.t.z m m w 0 0 z B B s 3 3 Y u.p.V.3X3X1XOXXXOX0 4 4 z B B ",
"$ 4 4 *X3X3X#XoXoXM.u.u.` 4 4 w B B S u.t.u.B B B 0 3 4 g B B a 4 4 I t.u.N.3X3X1XOXOXXX0 4 4 z B S ",
"; 4 4 ;X3X3X#XOXoXM.u.u.` 4 4 u B B S u.2.t.B B B 0 4 4 g B B a 4 4 Y t.u.N.2X3X1XOXXXOXu 3 4 z B B ",
"% 4 4 g v g I P I B s s o.R.R.V.8.8.8.8.*.2.8.8.5.S z z *.8.8.S 4 3 a Y S I S S S z m z m z z ;.5.5.",
"% 4 4 o X X , 4 4 4 4 4 *.oXoXW.u.u.u.u.t.r.u.u.u.I m m ;.u.u.Y 4 4 a B B g 4 4 4 4 4 4 B B B 8.u.u.",
"% 4 4 o X X , 4 4 4 4 4 *.oXoXW.u.u.u.u.u.r.u.u.u.I B B ;.u.u.Y 4 4 u B B g 4 4 4 4 4 4 m B B 8.u.u.",
". $ $ I U T v s s 9 4 4 2.1X;X[.u.u.h.U.R.R.r.u.t.I B B Y _ _ ` [ [ S u u u g g B o.*.o.;.;.;._ ! ! ",
"  X X 2.u.u.! B B u 4 4 2.3X3XoXu.u.h.oXoXoXu.u.t.I B B B B S X.u.u._ 4 4 u B B I t.t.t.u.t.t.I B B ",
"  X X 2.p.t.R B B u 4 4 0.3X3XOXu.u.h.oXoXoXp.r.r.I B B B B B X.u.u.` 4 4 w B B S u.u.u.u.t.u.S B B ",
"v R ! t.p.r.t.t.t.I u u *.!.`.!.).!.!.P.P.Z.[ [ [ t.p.p.-.X.X.X.o.[ S 4 4 z p.p.s.u.u.u.X.X.X.z a a ",
"L.oXoXg.t.r.!.oXoX2.B B ] p.p.Z.3X3X:Xu.p.t.B B B !.oXoXb.u.u.[ B B s 4 4 I oXoX`.u.u.u.S B B 0 4 4 ",
"L.|.oXp.r.p.!.oXoX6.B B ` r.p.Z.3X3X:Xu.u.t.B B B !.oXoXb.t.u.[ B B s 4 4 I oXoX].u.t.t.S m m 0 4 4 ",
"L.oXoXZ.Z.Z.U.W.!.t.! ! ` *.| k.1X1X#X*.[ *.B B B `.&X&XP.v.n.2.! ! B u u _ #X#X+XN.N.N.` _ _ w 4 4 ",
"L.oXoX2X3X3XZ.p.t.t.u.u.` 4 4 ! oXoX!.4 4 4 B B B #X3X3X&XOXOXZ.u.t.X.B B ;.3X3X1XOXoXoXp.u.u.a 4 4 ",
"L.oXoX2X3X3XZ.p.t.p.t.u.] 4 4 ` oXoX!.4 4 4 B B B @X3X3X#XOXOXZ.u.u.X.B B *.3X3X1XOXoXoXp.u.u.a 4 4 ",
"v.`.`.1X2X2XZ.h.p.t.t.2.! 9 9 ! !.!.Z.u u u I I I !.OXOX@X#X#XN.5.5.[ B B *.;X;X*X+X+X#Xk.k.h.m s s ",
"% 4 4 !.oXoXoXoXoXO.4 4 u B B B B B S t.r.r.p.r.p.p 4 4 !.3X3Xv.B B B B B T u.u.k.3X3X3X+XoXoXh.u.u.",
"; 4 4 ).oXoXoXoXoXO.4 4 u B B B B B I t.p.p.r.r.y.p 4 4 ).3X3Xv.B B B B B Y u.u.k.3X3X3XOXoXoXc.u.u.",
"; 4 4 ).oXoXoXoXoXO.4 4 u B B B B B I r.r.p.r.p.t.u 4 4 ).2X3Xk.B B B B B Y u.u.c.3X1X1XoXoXoXk.t.8.",
"2 M M u w w w w w 4 4 4 ; o X I 1X1X;X|.oX|.p.r.r.I B B p w u ] t.t.t.t.t.2.S B B u 0 4 ].oXoXI 4 3 ",
"2 B B 9 4 4 4 4 4 4 4 4 ; X X I 2X2X1XoXoX|.p.p.p.I M B 9 4 4 ! t.u.u.u.u.2.B B m 4 4 4 ].OXoXI 3 4 ",
"2 B B 4 4 4 4 4 4 4 4 4 $ X X I 3X3X2XoXoXoXr.t.r.I B B w 4 4 ! u.8.2.8.8.o.z g s , < , !.`.`.B , , "
};
