/* XPM */
static char *zombie2[] = {
/* columns rows colors chars-per-pixel */
"50 50 202 2 ",
"   c #1A1B1A",
".  c #2B3E1C",
"X  c #343A31",
"o  c #2C421D",
"O  c #274B17",
"+  c #295818",
"@  c #177B06",
"#  c #187B07",
"$  c #177A08",
"%  c #187A08",
"&  c #2B6619",
"*  c #306E1E",
"=  c #247412",
"-  c #297A15",
";  c #347B1E",
":  c #304720",
">  c #334B22",
",  c #365325",
"<  c #385226",
"1  c #365B25",
"2  c #395D27",
"3  c #3C5C2B",
"4  c #3B5629",
"5  c #3F4B34",
"6  c #3D642C",
"7  c #396E2B",
"8  c #386027",
"9  c #3D732A",
"0  c #3D6730",
"q  c #3D6E36",
"w  c #3A733E",
"e  c #2D7128",
"r  c #445937",
"t  c #41662D",
"y  c #426B2E",
"u  c #4A692E",
"i  c #43702F",
"p  c #436C33",
"a  c #486B36",
"s  c #4C6D3A",
"d  c #467233",
"f  c #497335",
"g  c #4A743B",
"h  c #4B7A38",
"j  c #527C3D",
"k  c #53703D",
"l  c #3B5B5B",
"z  c #2C6E44",
"x  c #347748",
"c  c #2B7751",
"v  c #35536A",
"b  c #355868",
"n  c #3A5A75",
"m  c #3C5779",
"M  c #3C5879",
"N  c #385375",
"B  c #374A74",
"V  c #1C7F66",
"C  c #39646A",
"Z  c #226B70",
"A  c #237370",
"S  c #4A5C40",
"D  c #497745",
"F  c #547641",
"G  c #587B45",
"H  c #597B49",
"J  c #547E47",
"K  c #447157",
"L  c #6B6B6B",
"P  c #178205",
"I  c #188406",
"U  c #178D04",
"Y  c #198C04",
"T  c #1B840A",
"R  c #1C8C0A",
"E  c #1B9306",
"W  c #1E930A",
"Q  c #1F990A",
"!  c #218B0E",
"~  c #21950D",
"^  c #219C0C",
"/  c #238912",
"(  c #288514",
")  c #259412",
"_  c #269B12",
"`  c #2A9B16",
"'  c #2C961A",
"]  c #2C9E19",
"[  c #299614",
"{  c #309C1E",
"}  c #25A60E",
"|  c #24A80E",
" . c #26A510",
".. c #29A313",
"X. c #2CAA16",
"o. c #2FAB19",
"O. c #2DA019",
"+. c #32A41E",
"@. c #34AE1E",
"#. c #278320",
"$. c #328926",
"%. c #349B23",
"&. c #329024",
"*. c #33833B",
"=. c #34A221",
"-. c #38AC23",
";. c #3EAD2A",
":. c #3BA72A",
">. c #3AB325",
",. c #3EB12A",
"<. c #129333",
"1. c #52873B",
"2. c #4A903F",
"3. c #488333",
"4. c #40B02B",
"5. c #49BC34",
"6. c #4DBC39",
"7. c #45B533",
"8. c #51BF3D",
"9. c #4FC03D",
"0. c #50C03D",
"q. c #0F9A48",
"w. c #288C48",
"e. c #16A654",
"r. c #1A846C",
"t. c #13816E",
"y. c #0C9C6D",
"u. c #08946B",
"i. c #1D9E69",
"p. c #188873",
"a. c #079771",
"s. c #0B9B71",
"d. c #1A9C70",
"f. c #20926D",
"g. c #16A765",
"h. c #0BA67B",
"j. c #5A8C44",
"k. c #5E814F",
"l. c #578545",
"z. c #539B47",
"x. c #5E9444",
"c. c #5E835A",
"v. c #588655",
"b. c #528C58",
"n. c #64864D",
"m. c #60944D",
"M. c #638451",
"N. c #678C55",
"B. c #6A8D54",
"V. c #6D8D59",
"C. c #688655",
"Z. c #728F59",
"A. c #639555",
"S. c #6C9057",
"D. c #6D9359",
"F. c #649958",
"G. c #629956",
"H. c #70945A",
"J. c #53A346",
"K. c #53A846",
"L. c #58A84B",
"P. c #5EBA4E",
"I. c #5CB44D",
"U. c #65A058",
"Y. c #67B859",
"T. c #61B453",
"R. c #698B63",
"E. c #668E60",
"W. c #789A65",
"Q. c #7F9D72",
"!. c #7B8971",
"~. c #7CBC72",
"^. c #5DC34C",
"/. c #64C752",
"(. c #6FC361",
"). c #3B328B",
"_. c #3F3494",
"`. c #41369A",
"'. c #463AA5",
"]. c #295C9A",
"[. c #1A739B",
"{. c #24689F",
"}. c #24679F",
"|. c #2471A9",
" X c #246EA6",
".X c #564F8C",
"XX c #585188",
"oX c #534B90",
"OX c #0C8F85",
"+X c #0C9288",
"@X c #009B9B",
"#X c #059894",
"$X c #098896",
"%X c #009FA0",
"&X c #00A3A3",
"*X c #00A7A8",
"=X c #00ADAD",
"-X c #868585",
";X c #ABBCA1",
":X c #BECDB4",
">X c #B3C7AA",
",X c #FDFAFD",
/* pixels */
"~.K.K.K.K.K.J.z.z.J.Y.Y.T.K.K.K.z.z.G.G.F.F.F.A.A.G.F.U.F.A.F.L.P.P.P.P.P.P.P.P.P.P.P.P.P.P.P.P.P.P.",
"K.Y Y U Y Y P @ @ / =.=.] Y U Y # @ q d p d g 0 6 2 3 0 d p q ) } } | | | | | | } | | } | } } | } } ",
"K.Y Y Y Y Y P @ # ! =.=.] Y Y I # # 7 p q p d g h 2.1.1.p p 0 ) } } } } } } } | }  .} } } } } } } } ",
"K.Y Y I @ P R ) ) _ ....^ Y Y Y # # 7 d g g g l.l.x.x.j.s d 0 _ } } } Q E E R R W Y ! ~ >.,.>.} | | ",
"K.Y Y # % # !  . . .} } ^ Y Y Y # $ 7 d N.S.D.W.W.H.H.D.l.J j }  .| ^ Y Y I % % % % % / 8.8.5.} } } ",
"K.Y Y I # # !  .]  .} } ^ Y Y Y $ # h J N.N.C.V.B.M.B.D.l.j j ..| | Q Y Y I $ # # # % ( 8.8.5.} } } ",
"J.T # ' =.%.O.}  .^ R R W ^ Q ^ %.{ l.M.D.C.M.C.M.H B.B.j j j ! W R R U U W / ) / # # T { %.{ } } } ",
"z.# $ 4.8.8.>. .} Q # @ R  .} X.6.^.z.Q.,X-X  n.B.H.X X ,X;XM.% $ @ P Y Y ) =.=.' # # # # # T } } } ",
"z.@ % ;.9.9.>.} | W @ @ T } | X.0.0.1.B.:X!.r k k G r r :XQ.j % @ @ P U U _ %.=.' $ @ % @ # I } } } ",
"z.@ $ ' %.%._ R W R @ # R | | ..-.4.3.h n.B.Z.4 < < G m.h i 8 ! R R I I P W ] ] ) R R R # # # ^ } ^ ",
"z.@ $ $ # # # # % # # # T } } } E Y i f f f a u u u t t i y t .. . .W # # P U Y E } | ^ @ # I Y Y Y ",
"z.@ $ # # # # # # # # # R  .}  .Y Y 9 y y y 8 y u u t , i t 8 .. . .W # # P U U W }  .^ @ # # Y Y Y ",
"J.R ! R R R I # I I # / w.i.g.e.q.<.& > , 1 1 1 2 6 8 2 y 6 2 e.g.g.d.f.*.( ~ E W ^ ^ Q R R I I I Y ",
"P.} } } } } ^ Y Y Y = s G H H c.v.b.t.t.t.z 8 y y t 6 z p.p.r.D H H k.H H F a * } U Y E } } ^ # # # ",
"P.} } } } } ~ Y Y Y + . > > . < 3 d +X%X&Xp.c h y 6 c r.&X&X#Xd a t 4 . o < o o ^ Y Y E } } ^ # # # ",
"P.} } ^ ~ ^ Y Y I I O . < : . > < p #X*X*X&X@X6 6 6 @X*X=X=X%Xy y t < . o < o . ~ E E E } } ~ I # I ",
"P.|  .T # @ # % # # o o < : . < 4 q @X=X=X=X&X+X+XOX*X*X=X=X@Xq f t , o o , : o ! } } } Y Y E } } | ",
"P.} } R $ # # # # # < > o : : : 4 w @X=X=X=X=X%X@X@X*X*X=X=X@Xx i 6 : : > . : < - } } ^ Y Y Y } } } ",
"I.} ^ R # I # # # % < : . > < . , x %X=X=X=X=X%X@X@X=X=X=X=X@Xx i t o > < . o < - } } ^ Y Y E ^ } ^ ",
"z.@ % ~ }  .R # @ = < : . < > . , ; s.%X%X*X=X=X%X@X=X*X&X@Xs.#.i y . : < o o < - Y Y Y Y Y Y @ @ @ ",
"z.@ @ Q } } W # @ % ( - & & + O & R u.@X@X%X=X=X&X@X=X*X@X@Xs.Y Y ; O + & = ( ` ^ Y Y Y Y Y I @ @ # ",
"z.@ @ ~ } } R # % R  ...^ Y Y Y U U u.#X@X*X=X*X@X@X=X=X*X@Xu.U Y Y Y Y Y ^ | X.^ Y Y Y Y Y Y @ @ # ",
"K.U Y P # @ @ @ # # E E Y @ # I  . .a.@X&X=X=X%X&X&X=X=X*X@Xy.E Y Y +.9.5.,. .| } Y Y Y Y Y Y # @ # ",
"K.U Y @ @ @ @ @ # P Y Y I @ @ # } } s.@X=X=X=X@X%X*X=X=X*X@Xy.E Y Y +.0.0.>.|  .^ Y Y Y Y Y Y # @ @ ",
"K.Y Y P # @ $ $ @ @ Y Y I # # # }  .s.@X=X=X*X@X%X*X=X=X*X@Xy.Q Y Y +.8.8.,.} } } Y Y Y Y Y I @ @ @ ",
"K.Y Y ;.6.6.-. .} ~ @ @ Y } } ..} | h.*X=X=X=X@X%X*X=X=X=X@Xy.E Y Y I I # ~ } } ^ Y Y Y Y Y E } } } ",
"K.Y Y 4.0.0.-. .} ~ # # I } } |  .} h.=X=X=X=X@X%X*X=X=X=X@Xy.E Y Y I # # R | } } Y Y Y Y Y Y }  .} ",
"K.U U 4.8.0.>.} } ~ # # R } } } } } s.@X@X@X@X*X=X=X*X=X=X@Xy.Q Y Y I @ # R | } ^ Y Y Y Y Y E }  .} ",
"J.@ @ ..o.o.^ T I T # # % T T T R T Z {.{.{.{. X|.|.[.[.=X%Xy.Q Y Y U P Y I T R I E U E } } ^ }  .} ",
"z.% @ ^ } } R # # @ # # # $ $ $ # # B '.'.'.'.'.'.`.).].=X@Xy.E Y Y Y Y Y I @ @ @ Y U E | ..} }  . .",
"z.@ # ~ } } ! # @ @ # # # # $ $ $ $ B '.'.'.'.'.'.'.'.`.).$Xy.E Y Y Y Y U P @ # # U U Y } } } | } } ",
"I.Q ~ R T T Y I I I I I Y ^ ^ ^ ~ ^ N '.'.'.'.'.'.'.'.'.`.].A Y I # P # P @ # # I ^ ^ } } } } E E E ",
"P.} } R @ % I Y Y Y Y Y E } }  .|  .M '.'.'.'.'.'.'.'.'.'.'.n # # # # # # # # # R } } } }  .} Y Y Y ",
"P.} } T # % I Y Y Y Y Y E | X.| |  .M '.'.'.'.'.'.'.'.'.'.'.N I @ @ # # # # # $ T } } } |  .} Y Y Y ",
"K.R R W ~ W Y Y Y E ^ Q } | | | | | M '.'.'.'.'.'.'.'.'.'.'.n Y I I # # $ T ~ ~ ! T R R } } } Y U Y ",
"z.# @ ~ | | ~ Y Y E } } } } } }  .| M '.'.'.'.'.'.'.'.'.'.'.n W Y Y I # $ R } } ^ $ @ T } } ^ Y Y U ",
"z.$ % ^  . .Q Y Y E | | } | } |  . .M '.'.'.'.'.'.'.'.'.'.'.n W Y Y I @ @ Y } } ^ $ # I } } } Y Y E ",
"z.$ % Q |  .Q Y Y Y ^ E ^ W ~ ^ |  .M '.'.'.'.'.'.'.'.'.'.'.b E Y Y I @ # I R ~ I $ $ T }  .} Y Y Y ",
"z.$ $ Q  .| Q Y Y Y Y Y Y Y Y E } } n '.'.'.'.'.'.'.'.'.'.'.b Y Y Y I @ # # # # % # # R } } } Y Y Y ",
"z.$ $ Q  .| Q Y Y Y Y Y Y Y U E } } m '.).).).'.'.'.).).).'.b E Y Y I @ # # # # # # % I ..} ^ Y Y Y ",
"z.@ % Q } | ^ W ~ ^ ` ` ` Y Y Y ^ ^ n '._._._.'.'.'._.`.`.`.b ~ ] ] ) # # T R W ~ ! Y ~ ^ E ^ ~ ^ ^ ",
"z.$ # ~ } } } } } @.8.8.4.Y Y Y Y Y v '.'.'.'.'.'.'.'.'.'.'.v :.0.8.%.# # Y } } } } } ^ Y Y E } | } ",
"z.@ # ~ | } } } } @.0.8.4.Y Y Y Y Y v '.'.'.'.'.'.'.'.'.'.'.v :.^.6.%.# % R | } } | } } U U E } } } ",
"z.@ # W ~ ~ ^ ^ ^ ..;.;.+.E E ~ I I v '.'.'.'.'.'.'.'.'.'.'.b +.;.>.] T R W Q } ^ } } } Y Y E }  .} ",
"z.@ @ $ # # I Y Y I # # R } } } @ @ v '.'.'.'.'.'.'.'.'.'.'.C E U U Q } } Q Y Y Y } } } U Y E } }  .",
"z.$ $ @ # # I Y Y I # # R } } ^ @ @ v '.'.'.'.'.'.'.'.'.'.'.C Q Y Y Q } } ^ Y Y E } } } Y Y E }  . .",
"J.P T T T T Y Y E Y # # I } } ^ @ @ l oXoXoX.XoX.X.X.XXXXXXXK U P P E Q ~ ^ E E Q } } ..` ` ^ } } | ",
"P.} } } } } } } } ^ Y Y Y Y Y Y U Y D L L L L L L L L L L L D @ $ # # # % R | | } } } o.8.8.5.}  . .",
"P.} } } } } } } | ^ Y Y Y U U U I U D L L L L L L L L L L L D @ @ $ @ @ $ R |  . .|  .o.0.0.5. . .} ",
"(.,.,.;.,.;.,.4.,.:.%.%.%.%.%.%.%.%.l.R.E.E.R.R.R.H c.c.E.b.z.$.$.$.$.$.$.%.4.4.,.,.,.7././.^.,.,.,."
};
